<svg width="190" height="191" viewBox="0 0 190 191" fill="none" xmlns="http://www.w3.org/2000/svg">
<path d="M190 95C190 95.7071 189.992 96.4131 189.975 97.1178C189.968 97.5785 189.954 98.0393 189.936 98.5C189.932 98.6321 189.929 98.7607 189.921 98.8928C189.911 99.1464 189.9 99.3964 189.889 99.6428C189.811 101.289 189.689 102.924 189.525 104.546C189.518 104.625 189.511 104.704 189.504 104.779C189.486 104.939 189.471 105.1 189.45 105.261C189.4 105.743 189.346 106.225 189.286 106.7C189.246 107.021 189.207 107.339 189.164 107.661C189.143 107.814 189.121 107.968 189.104 108.118C189.079 108.286 189.057 108.45 189.032 108.614C189.021 108.686 189.011 108.757 189 108.832C188.964 109.075 188.929 109.321 188.889 109.564C188.843 109.882 188.793 110.196 188.739 110.514C188.689 110.829 188.636 111.143 188.579 111.457C188.525 111.771 188.468 112.086 188.411 112.4C188.354 112.718 188.293 113.032 188.232 113.346C187.925 114.904 187.582 116.448 187.204 117.979C187.054 118.575 186.9 119.17 186.743 119.764C186.482 120.729 186.207 121.688 185.918 122.643C185.836 122.907 185.754 123.171 185.671 123.432C185.579 123.732 185.482 124.032 185.386 124.329C185.289 124.629 185.193 124.925 185.093 125.221C184.993 125.518 184.893 125.814 184.789 126.111C184.689 126.404 184.586 126.7 184.479 126.993C184.375 127.289 184.268 127.582 184.161 127.875C184.05 128.168 183.943 128.461 183.832 128.75C183.611 129.336 183.383 129.915 183.15 130.489C183.036 130.779 182.918 131.068 182.796 131.354C182.321 132.504 181.824 133.64 181.304 134.764C181.189 135.014 181.075 135.264 180.957 135.511C180.879 135.675 180.804 135.836 180.725 136C180.593 136.271 180.464 136.539 180.332 136.807C180.2 137.078 180.064 137.354 179.925 137.628C179.65 138.171 179.37 138.713 179.086 139.253C178.804 139.793 178.514 140.332 178.218 140.864C177.921 141.396 177.621 141.928 177.318 142.454C177.164 142.718 177.011 142.982 176.857 143.243C176.239 144.289 175.601 145.324 174.943 146.346C174.289 147.364 173.614 148.37 172.918 149.364C172.571 149.861 172.218 150.357 171.861 150.846C171.718 151.043 171.575 151.236 171.432 151.428C171.257 151.671 171.075 151.911 170.893 152.15C163.153 162.445 153.399 171.057 142.224 177.463C131.05 183.868 118.689 187.932 105.893 189.408C93.0982 190.884 80.1365 189.741 67.7971 186.049C55.4577 182.356 43.9988 176.191 34.118 167.928C33.0751 167.057 32.0513 166.164 31.0465 165.25C24.599 159.379 18.9862 152.652 14.3644 145.257C13.7894 144.332 13.2251 143.396 12.6823 142.454C4.34865 128.029 -0.0263372 111.659 0.000119282 94.9999C0.000119282 42.5321 42.5322 1.74378e-05 95.0001 1.74378e-05C110.788 -0.00955112 126.328 3.91891 140.215 11.4297C154.101 18.9404 165.895 29.7963 174.529 43.0143C174.686 43.2536 174.843 43.4964 175 43.7393C183.584 57.0981 188.661 72.4057 189.761 88.2464C189.921 90.475 190.001 92.7262 190 95Z" fill="#F2F2F2"/>
<path d="M175.002 43.7392H43.4124C43.3178 43.7369 43.2278 43.6977 43.1617 43.6299C43.0956 43.5622 43.0586 43.4713 43.0586 43.3767C43.0586 43.282 43.0956 43.1911 43.1617 43.1234C43.2278 43.0557 43.3178 43.0165 43.4124 43.0142H174.53C174.687 43.2534 174.844 43.4963 175.002 43.7392Z" fill="#CACACA"/>
<path d="M51.3921 38.664C53.5471 38.664 55.294 36.8781 55.294 34.6751C55.294 32.4722 53.5471 30.6863 51.3921 30.6863C49.2372 30.6863 47.4902 32.4722 47.4902 34.6751C47.4902 36.8781 49.2372 38.664 51.3921 38.664Z" fill="#3F3D56"/>
<path d="M64.8726 38.664C67.0276 38.664 68.7745 36.8781 68.7745 34.6751C68.7745 32.4722 67.0276 30.6863 64.8726 30.6863C62.7176 30.6863 60.9707 32.4722 60.9707 34.6751C60.9707 36.8781 62.7176 38.664 64.8726 38.664Z" fill="#3F3D56"/>
<path d="M78.3511 38.664C80.5061 38.664 82.253 36.8781 82.253 34.6751C82.253 32.4722 80.5061 30.6863 78.3511 30.6863C76.1962 30.6863 74.4492 32.4722 74.4492 34.6751C74.4492 36.8781 76.1962 38.664 78.3511 38.664Z" fill="#3F3D56"/>
<path d="M188.584 94.2858C184.21 95.8473 180.291 98.37 176.868 101.84C172.912 105.852 168.675 108.679 164.346 110.594C164.141 110.683 163.941 110.769 163.736 110.855C159.856 112.497 155.6 113.52 151.214 113.867C149.889 113.972 148.558 114.022 147.227 114.017C146.671 114.014 146.116 114.003 145.565 113.981C144.259 113.931 142.966 113.831 141.696 113.688C134.404 112.874 127.809 110.673 122.925 108.604C116.233 105.706 108.969 103.711 101.436 102.701C100.088 102.526 98.7441 102.389 97.4029 102.29C96.8476 102.247 96.2968 102.215 95.746 102.186C94.3941 102.115 93.0438 102.081 91.695 102.086C91.0031 102.09 90.3158 102.1 89.6239 102.122C77.9986 102.479 62.8366 105.081 49.2404 114.167C49.0584 114.289 48.8808 114.41 48.6988 114.532C48.5304 114.646 48.362 114.764 48.1935 114.882C46.0415 116.384 44.0134 117.991 42.1214 119.695C39.9524 121.647 37.9455 123.705 36.1131 125.859C33.937 128.38 31.3953 130.695 28.5389 132.755C24.3141 135.816 20.9307 139.522 18.5966 143.647C16.2624 147.771 15.0268 152.226 14.9655 156.739V156.918C14.9609 157.111 14.9609 157.307 14.9609 157.5H165.229C165.411 157.307 165.593 157.114 165.771 156.918C166.226 156.428 166.677 155.931 167.118 155.435C168.006 154.441 168.866 153.435 169.699 152.415C170.541 151.393 171.354 150.358 172.139 149.31C172.334 149.049 172.53 148.785 172.726 148.52C173.113 147.995 173.495 147.463 173.873 146.93C174.251 146.398 174.619 145.858 174.979 145.319C175.343 144.779 175.7 144.237 176.049 143.693C176.226 143.418 176.399 143.143 176.568 142.871C176.736 142.603 176.9 142.335 177.068 142.064C177.168 141.899 177.264 141.738 177.364 141.574C177.514 141.328 177.66 141.077 177.806 140.827C178.47 139.702 179.104 138.564 179.708 137.415C179.863 137.129 180.013 136.84 180.159 136.55C180.455 135.975 180.745 135.395 181.028 134.81C181.169 134.52 181.306 134.227 181.447 133.934C181.584 133.641 181.72 133.348 181.852 133.052C181.989 132.759 182.121 132.462 182.248 132.169C182.38 131.873 182.508 131.576 182.635 131.28C182.763 130.983 182.885 130.686 183.008 130.386C183.131 130.09 183.254 129.79 183.372 129.489C183.477 129.229 183.582 128.964 183.687 128.7C184.055 127.746 184.406 126.786 184.738 125.82C184.938 125.226 185.134 124.631 185.325 124.033C185.808 122.504 186.245 120.959 186.636 119.399C186.713 119.084 186.791 118.77 186.864 118.452C186.937 118.137 187.009 117.823 187.078 117.508C187.15 117.194 187.219 116.879 187.282 116.565C187.351 116.247 187.414 115.933 187.474 115.615C187.524 115.372 187.569 115.125 187.615 114.882C187.628 114.807 187.642 114.735 187.656 114.664C187.688 114.496 187.715 114.332 187.742 114.167C187.77 114.014 187.797 113.86 187.824 113.71C187.879 113.388 187.929 113.07 187.979 112.749C188.056 112.274 188.125 111.791 188.188 111.309H188.193C188.211 111.148 188.234 110.987 188.257 110.826C188.266 110.751 188.275 110.673 188.284 110.594C188.493 108.972 188.648 107.336 188.748 105.688C188.762 105.441 188.775 105.191 188.789 104.938C188.798 104.805 188.803 104.677 188.807 104.545C188.83 104.084 188.848 103.623 188.857 103.162C188.88 102.458 188.891 101.752 188.889 101.043C188.889 98.7702 188.788 96.5179 188.584 94.2858Z" fill="#FEDA3E"/>
<path d="M47.817 118.214H46.0312V156.429H47.817V118.214Z" fill="#3F3D56"/>
<path d="M97.4654 100.357H95.6797V156.429H97.4654V100.357Z" fill="#3F3D56"/>
<path d="M147.102 112.143H145.674V156.429H147.102V112.143Z" fill="#3F3D56"/>
<path d="M96.75 107.5C99.5114 107.5 101.75 105.261 101.75 102.5C101.75 99.7386 99.5114 97.5 96.75 97.5C93.9886 97.5 91.75 99.7386 91.75 102.5C91.75 105.261 93.9886 107.5 96.75 107.5Z" fill="#3F3D56"/>
<path d="M146.389 118.571C149.15 118.571 151.389 116.333 151.389 113.571C151.389 110.81 149.15 108.571 146.389 108.571C143.627 108.571 141.389 110.81 141.389 113.571C141.389 116.333 143.627 118.571 146.389 118.571Z" fill="#3F3D56"/>
<path d="M46.0332 121.071C48.7946 121.071 51.0332 118.833 51.0332 116.071C51.0332 113.31 48.7946 111.071 46.0332 111.071C43.2718 111.071 41.0332 113.31 41.0332 116.071C41.0332 118.833 43.2718 121.071 46.0332 121.071Z" fill="#3F3D56"/>
<path d="M170.787 156.918C170.644 157.114 170.501 157.307 170.359 157.5C170.184 157.743 170.001 157.982 169.819 158.221H52.3301V156.918H170.787Z" fill="#3F3D56"/>
<path d="M49.25 114.286H46.75V115H49.25V114.286Z" fill="#3F3D56"/>
<path d="M54.9648 114.286V115H60.4795V114.286H54.9648ZM65.9942 114.286V115H71.5043V114.286H65.9942ZM77.0189 114.286V115H82.5336V114.286H77.0189ZM88.0438 114.286V115H93.5584V114.286H88.0438ZM99.0731 114.286V115H104.583V114.286H99.0731ZM110.098 114.286V115H115.613V114.286H110.098ZM121.123 114.286V115H126.637V114.286H121.123ZM132.152 114.286V115H137.662V114.286H132.152ZM143.177 114.286V115H148.691V114.286H143.177ZM154.202 114.286V115H159.716V114.286H154.202ZM165.226 114.286V115H170.741V114.286H165.226ZM176.256 114.286V115H181.766V114.286H176.256ZM187.28 114.286V115H187.69C187.704 114.925 187.717 114.854 187.731 114.782C187.763 114.618 187.79 114.454 187.822 114.286H187.28Z" fill="#3F3D56"/>
<path d="M96.7497 100H93.8926V100.714H96.7497V100Z" fill="#3F3D56"/>
<path d="M102.105 100V100.714H107.631V100H102.105ZM113.156 100V100.714H118.677V100H113.156ZM124.202 100V100.714H129.728V100H124.202ZM135.248 100V100.714H140.774V100H135.248ZM146.299 100V100.714H151.82V100H146.299ZM157.345 100V100.714H162.87V100H157.345ZM168.391 100V100.714H173.916V100H168.391ZM179.442 100V100.714H184.963V100H179.442Z" fill="#3F3D56"/>
<path d="M147.105 110.714H144.605V111.429H147.105V110.714Z" fill="#3F3D56"/>
<path d="M152.818 110.714V111.429H158.3V110.714H152.818ZM163.782 110.714V111.429H169.26V110.714H163.782ZM174.742 110.714V111.429H180.224V110.714H174.742ZM185.701 110.714V111.429H188.085C188.103 111.268 188.126 111.107 188.148 110.946C188.157 110.871 188.166 110.793 188.175 110.714H185.701Z" fill="#3F3D56"/>
</svg>
