<svg width="315" height="198" viewBox="0 0 315 198" fill="none" xmlns="http://www.w3.org/2000/svg">
<path d="M103.346 194.302C103.442 194.306 103.537 194.281 103.618 194.23C103.7 194.178 103.763 194.103 103.8 194.014C103.837 193.925 103.846 193.827 103.826 193.733C103.805 193.639 103.756 193.553 103.686 193.488L103.654 193.36L103.667 193.329C103.763 193.1 103.925 192.905 104.132 192.768C104.339 192.631 104.582 192.559 104.83 192.56C105.078 192.561 105.32 192.635 105.526 192.773C105.732 192.912 105.893 193.108 105.988 193.338C106.367 194.254 106.851 195.172 106.97 196.142C107.022 196.57 107 197.004 106.904 197.425C107.796 195.475 108.259 193.356 108.262 191.211C108.262 190.673 108.233 190.135 108.173 189.6C108.123 189.162 108.055 188.726 107.967 188.294C107.489 185.949 106.463 183.751 104.973 181.88C104.252 181.486 103.669 180.879 103.302 180.142C103.169 179.877 103.075 179.594 103.023 179.303C103.181 178.885 103.265 178.442 103.269 177.995C103.382 177.823 103.585 177.737 103.709 177.569C104.325 176.732 105.173 176.878 105.616 178.015C106.562 178.494 106.571 179.288 105.991 180.051C105.622 180.537 105.571 181.194 105.247 181.714C105.28 181.757 105.315 181.798 105.348 181.841C105.958 182.627 106.489 183.47 106.934 184.36C106.826 183.363 106.955 182.355 107.311 181.419C107.672 180.546 108.349 179.811 108.945 179.056C109.102 178.853 109.316 178.702 109.56 178.621C109.803 178.54 110.065 178.534 110.312 178.602C110.559 178.67 110.781 178.811 110.948 179.005C111.116 179.199 111.222 179.439 111.254 179.694L111.258 179.728C111.169 179.778 111.082 179.831 110.998 179.887C110.891 179.958 110.809 180.06 110.761 180.179C110.713 180.298 110.703 180.429 110.73 180.555C110.758 180.68 110.823 180.794 110.916 180.882C111.01 180.969 111.127 181.027 111.254 181.046L111.267 181.048C111.235 181.368 111.18 181.685 111.1 181.996C111.865 184.959 110.214 186.039 107.858 186.087C107.806 186.114 107.755 186.141 107.703 186.166C108.151 187.437 108.431 188.761 108.538 190.104C108.599 190.897 108.595 191.693 108.528 192.485L108.532 192.457C108.702 191.576 109.171 190.782 109.859 190.207C110.88 189.366 112.323 189.057 113.424 188.381C113.541 188.305 113.678 188.265 113.817 188.265C113.956 188.265 114.092 188.304 114.21 188.379C114.327 188.454 114.421 188.561 114.48 188.687C114.538 188.813 114.56 188.954 114.542 189.092L114.537 189.122C114.373 189.189 114.213 189.266 114.058 189.353C113.97 189.403 113.883 189.456 113.798 189.512C113.692 189.584 113.609 189.686 113.562 189.805C113.514 189.924 113.503 190.055 113.531 190.18C113.559 190.305 113.624 190.419 113.717 190.507C113.81 190.595 113.928 190.652 114.055 190.672L114.068 190.674L114.094 190.678C113.814 191.349 113.42 191.968 112.93 192.505C112.452 195.092 110.399 195.337 108.203 194.584H108.202C107.961 195.634 107.612 196.655 107.161 197.632H103.44C103.426 197.591 103.414 197.548 103.402 197.506C103.747 197.528 104.092 197.508 104.432 197.445C104.156 197.105 103.88 196.763 103.604 196.424C103.597 196.417 103.592 196.411 103.586 196.404C103.446 196.23 103.305 196.057 103.165 195.884L103.165 195.883C103.157 195.351 103.218 194.819 103.346 194.302L103.346 194.302Z" fill="#F2F2F2"/>
<path d="M11.2016 194.302C11.1057 194.306 11.0106 194.281 10.9295 194.23C10.8483 194.178 10.7849 194.103 10.7478 194.014C10.7107 193.925 10.7018 193.827 10.7222 193.733C10.7427 193.639 10.7915 193.553 10.862 193.488L10.8941 193.36L10.8814 193.329C10.7847 193.1 10.6227 192.905 10.4157 192.768C10.2087 192.631 9.9659 192.559 9.71789 192.56C9.46988 192.561 9.22768 192.635 9.0217 192.773C8.81571 192.912 8.65515 193.108 8.56016 193.338C8.18051 194.254 7.69715 195.172 7.57813 196.142C7.52571 196.57 7.54783 197.004 7.64348 197.425C6.7518 195.475 6.28877 193.356 6.28579 191.211C6.28561 190.673 6.31545 190.135 6.37517 189.6C6.42451 189.162 6.49298 188.726 6.58056 188.294C7.05849 185.949 8.08462 183.751 9.57468 181.88C10.2959 181.486 10.8791 180.879 11.2458 180.142C11.3786 179.877 11.4725 179.594 11.5245 179.303C11.3665 178.885 11.2834 178.442 11.2791 177.995C11.1658 177.823 10.9628 177.737 10.839 177.569C10.2232 176.732 9.37475 176.878 8.93183 178.015C7.98565 178.494 7.97649 179.288 8.55706 180.051C8.92643 180.537 8.97718 181.194 9.30127 181.714C9.26792 181.757 9.23325 181.798 9.19991 181.841C8.59041 182.627 8.05919 183.47 7.61386 184.36C7.72215 183.363 7.59289 182.355 7.23671 181.419C6.87573 180.546 6.19913 179.811 5.60329 179.056C5.4457 178.853 5.23169 178.702 4.98831 178.621C4.74493 178.54 4.48312 178.534 4.23595 178.602C3.98879 178.67 3.76738 178.811 3.5997 179.005C3.43203 179.199 3.32561 179.439 3.29391 179.694L3.29034 179.728C3.37883 179.778 3.46547 179.831 3.55023 179.887C3.65671 179.958 3.73921 180.06 3.78693 180.179C3.83465 180.298 3.84536 180.429 3.81766 180.555C3.78996 180.68 3.72514 180.794 3.63169 180.882C3.53824 180.969 3.42053 181.027 3.29397 181.046L3.28101 181.048C3.31254 181.368 3.36827 181.685 3.44772 181.996C2.68334 184.959 4.33358 186.039 6.68991 186.087C6.74191 186.114 6.7926 186.141 6.84462 186.166C6.39719 187.437 6.11655 188.761 6.00973 190.104C5.94926 190.897 5.95282 191.693 6.0204 192.485L6.0164 192.457C5.84567 191.576 5.37694 190.782 4.68937 190.207C3.66816 189.366 2.22537 189.057 1.12367 188.381C1.00659 188.305 0.870447 188.265 0.731307 188.265C0.592167 188.265 0.455838 188.304 0.338388 188.379C0.220938 188.454 0.127276 188.561 0.0684397 188.687C0.00960345 188.813 -0.0119557 188.954 0.00631939 189.092L0.0108338 189.122C0.175066 189.189 0.334971 189.266 0.489621 189.353C0.578121 189.403 0.664754 189.456 0.749517 189.512C0.855998 189.584 0.938496 189.686 0.986219 189.805C1.03394 189.924 1.04465 190.055 1.01695 190.18C0.989249 190.305 0.924428 190.419 0.830977 190.507C0.737526 190.595 0.61981 190.652 0.493242 190.672L0.480275 190.674L0.453611 190.678C0.734223 191.349 1.12807 191.968 1.61791 192.505C2.09586 195.092 4.14865 195.337 6.34449 194.584H6.34583C6.58676 195.634 6.93584 196.655 7.38744 197.632H11.1084C11.1218 197.591 11.1338 197.548 11.1458 197.506C10.8014 197.528 10.4556 197.508 10.1162 197.445C10.3923 197.105 10.6683 196.763 10.9444 196.424C10.9505 196.417 10.9563 196.411 10.9617 196.404C11.1018 196.23 11.2431 196.057 11.3832 195.884L11.3832 195.883C11.3907 195.351 11.3297 194.819 11.2018 194.302L11.2016 194.302Z" fill="#F2F2F2"/>
<path d="M153.414 30.6088C154.167 29.0895 155.37 27.8281 156.106 26.3005C156.842 24.773 156.985 22.7284 155.759 21.5592C154.718 20.5664 153.087 20.5525 151.842 19.8335C148.67 18.0014 148.674 12.1825 145.047 11.6797C143.284 11.4352 141.688 12.7608 140.622 14.19C139.557 15.6193 138.707 17.2871 137.229 18.2814C135.556 19.4071 133.392 19.456 131.534 20.2379C127.972 21.7369 126.104 25.5916 124.542 29.1341C123.536 31.4161 122.507 33.8775 122.974 36.3282C121.959 36.9611 122.412 38.6631 123.424 39.2989C124.437 39.9347 125.709 39.9205 126.872 40.1959C129.316 40.7747 131.318 42.7251 132.267 45.056C133.006 46.8728 133.157 48.8675 133.3 50.8245C133.548 54.2202 133.795 57.6159 134.043 61.0116C134.153 62.5224 134.297 64.1279 135.215 65.3316C136.132 66.5354 138.119 67.0398 139.15 65.9325C140.136 64.8744 139.692 63.1991 139.672 61.7516C139.652 60.3041 140.957 58.5016 142.188 59.2589L142.622 58.2717C145.434 57.2626 147.895 55.4628 149.713 53.0877C151.53 50.7126 152.627 47.8628 152.87 44.8795C153.185 40.0741 151.277 34.9217 153.414 30.6088Z" fill="#E6E6E6"/>
<path d="M156.288 61.0803C156.559 60.8238 156.752 60.4947 156.843 60.132C156.934 59.7692 156.92 59.3879 156.802 59.0331C156.684 58.6782 156.467 58.3646 156.177 58.1291C155.887 57.8937 155.536 57.7463 155.165 57.7043L155.17 57.8674C154.641 58.1772 154.037 58.3361 153.424 58.3272C152.814 58.3176 152.206 58.414 151.629 58.6123C151.342 58.717 151.093 58.9064 150.915 59.1556C150.737 59.4048 150.639 59.702 150.633 60.0083C150.666 60.243 150.756 60.4662 150.894 60.6588C151.032 60.8514 151.214 61.0078 151.425 61.1147C151.849 61.3241 152.305 61.4627 152.773 61.525C153.981 61.7527 155.394 61.925 156.288 61.0803Z" fill="#E6E6E6"/>
<path d="M179.833 30.6893C180.339 30.3445 180.768 29.8989 181.094 29.3803C181.252 29.1179 181.327 28.8137 181.309 28.5077C181.292 28.2017 181.183 27.9082 180.996 27.6657C180.615 27.3346 180.125 27.1572 179.621 27.1679C178.253 27.0655 176.877 27.2281 175.57 27.6467C176.912 28.8386 178.255 30.0305 179.597 31.2224L179.833 30.6893Z" fill="#E6E6E6"/>
<path d="M173.124 33.7892C173.666 34.3894 173.493 35.3204 173.34 36.1155C173.186 36.9106 173.166 37.9042 173.849 38.3379C174.44 38.7139 175.27 38.4071 175.702 37.8551C176.089 37.2663 176.325 36.5909 176.388 35.8889C176.601 34.8686 176.697 33.8274 176.675 32.7853C176.649 31.7355 176.279 30.7233 175.623 29.9047C175.157 29.3724 174.537 28.9996 173.849 28.8385C173.161 28.6774 172.44 28.7361 171.787 29.0064L172.411 28.9756C171.958 29.559 171.614 30.2202 171.396 30.9268C171.292 31.2818 171.285 31.6583 171.375 32.0171C171.465 32.376 171.65 32.704 171.909 32.9673C172.279 33.29 172.794 33.4249 173.124 33.7892Z" fill="#E6E6E6"/>
<path d="M203.712 23.7231L203.823 23.3809C203.359 23.6497 203.002 24.0701 202.811 24.5716C202.619 25.073 202.605 25.6252 202.772 26.1356C203.128 25.8537 203.403 25.4815 203.569 25.0574C203.734 24.6333 203.784 24.1727 203.712 23.7231Z" fill="#E6E6E6"/>
<path d="M197.687 28.6215C198.277 28.2864 198.781 27.8173 199.158 27.2518C199.535 26.6863 199.775 26.0402 199.857 25.3652C199.921 24.9455 199.873 24.5163 199.717 24.1215C199.637 23.9256 199.51 23.7525 199.347 23.6176C199.184 23.4828 198.99 23.3904 198.783 23.3486L198.531 23.747C198.169 23.4346 197.56 23.7559 197.408 24.2099C197.31 24.6812 197.35 25.171 197.525 25.6195C197.7 26.0706 197.692 26.5722 197.503 27.0176C197.3 27.2796 197.071 27.5206 196.82 27.7373C196.697 27.8492 196.617 28.0003 196.593 28.1648C196.57 28.3293 196.603 28.4969 196.689 28.6391C196.927 28.9112 197.372 28.797 197.687 28.6215Z" fill="#E6E6E6"/>
<path d="M195.119 26.3961C195.335 26.0062 195.437 25.5631 195.413 25.1177L194.86 24.9441C194.507 25.0875 194.194 25.3145 193.948 25.6056C193.873 25.6808 193.816 25.7717 193.78 25.8717C193.745 25.9717 193.731 26.0784 193.742 26.1841C193.752 26.2898 193.785 26.3919 193.84 26.4832C193.894 26.5744 193.968 26.6525 194.055 26.7118C194.143 26.7712 194.243 26.8103 194.348 26.8264C194.453 26.8426 194.56 26.8353 194.661 26.8051C194.763 26.7749 194.857 26.7226 194.936 26.6519C195.015 26.5812 195.077 26.4938 195.119 26.3961Z" fill="#E6E6E6"/>
<path d="M222.109 23.5947C222.159 23.6366 222.209 23.6797 222.259 23.722C222.303 23.7128 222.345 23.6961 222.39 23.6906L222.109 23.5947Z" fill="#E6E6E6"/>
<path d="M221.225 28.4528C221.732 28.0417 222.239 27.6306 222.746 27.2195C223.016 27.0284 223.245 26.7865 223.422 26.5073C223.543 26.243 223.595 25.9523 223.574 25.6623C223.553 25.3724 223.458 25.0925 223.3 24.8489C223.019 24.4172 222.668 24.0362 222.26 23.7222C221.812 23.8284 221.419 24.0955 221.154 24.473C220.89 24.8505 220.773 25.312 220.825 25.7703C220.917 26.3532 221.282 26.9765 220.984 27.4854C220.868 27.6835 220.668 27.8184 220.534 28.005C220.4 28.1915 220.357 28.4886 220.541 28.6258C220.745 28.7781 221.028 28.6133 221.225 28.4528Z" fill="#E6E6E6"/>
<path d="M222.332 30.9693C222.52 30.9795 222.709 30.9488 222.884 30.8795C223.06 30.8102 223.219 30.7038 223.35 30.5676C224.028 30.011 224.621 29.358 225.11 28.6294C223.969 28.9916 222.828 29.3538 221.688 29.716L222.043 30.1329C221.727 30.3396 221.961 30.8982 222.332 30.9693Z" fill="#E6E6E6"/>
<path d="M225.529 33.3231C225.599 33.5015 225.725 33.652 225.888 33.7518C226.051 33.8516 226.242 33.8951 226.432 33.8757C226.621 33.8504 226.803 33.7839 226.963 33.6807C227.124 33.5775 227.261 33.4402 227.363 33.2785C227.536 33.0221 227.638 32.724 227.658 32.415C227.678 32.1059 227.615 31.7972 227.476 31.5206C227.337 31.244 227.127 31.0097 226.867 30.8418C226.608 30.674 226.308 30.5787 225.999 30.5659L226.314 31.0483C226.395 31.8716 225.278 32.5351 225.529 33.3231Z" fill="#E6E6E6"/>
<path d="M228.87 42.3405C229.179 42.5713 229.554 42.6956 229.939 42.6947C230.324 42.6937 230.698 42.5677 231.005 42.3355C231.205 42.1648 231.367 41.9547 231.481 41.7183C231.596 41.482 231.66 41.2245 231.671 40.9619C231.682 40.6994 231.638 40.4374 231.543 40.1925C231.448 39.9476 231.304 39.7249 231.119 39.5386L230.536 39.8647C230.213 39.6565 229.822 39.5821 229.445 39.6571C229.069 39.7321 228.736 39.9507 228.516 40.2669C228.32 40.5983 228.247 40.989 228.312 41.3691C228.377 41.7491 228.575 42.0936 228.87 42.3405Z" fill="#E6E6E6"/>
<path d="M235.643 43.1093C235.926 43.0267 236.184 42.8725 236.391 42.6615C236.599 42.4504 236.748 42.1895 236.826 41.9038L235.694 41.7546C235.379 41.5161 235.012 41.3555 234.623 41.2859C234.428 41.2566 234.229 41.2954 234.059 41.3957C233.89 41.4959 233.759 41.6516 233.69 41.8367C233.666 41.9942 233.683 42.1552 233.738 42.3044C233.794 42.4536 233.887 42.5861 234.008 42.6892C234.222 42.8936 234.484 43.0396 234.771 43.1131C235.057 43.1867 235.357 43.1854 235.643 43.1093Z" fill="#E6E6E6"/>
<path d="M230.969 45.3794C230.989 45.5641 231.061 45.7393 231.176 45.8845C231.292 46.0298 231.446 46.139 231.622 46.1995C231.813 46.2905 232.027 46.3218 232.237 46.2893C232.446 46.2568 232.641 46.162 232.796 46.0172C232.864 45.9398 232.913 45.8471 232.939 45.747C232.964 45.6468 232.966 45.5419 232.943 45.4412C232.92 45.3404 232.873 45.2465 232.807 45.1675C232.74 45.0884 232.656 45.0263 232.561 44.9865L231.711 44.8316C231.383 44.6613 230.963 45.009 230.969 45.3794Z" fill="#E6E6E6"/>
<path d="M200.497 51.3664L199.84 50.7646C200.015 51.009 200.239 51.214 200.497 51.3664Z" fill="#E6E6E6"/>
<path d="M195.473 47.823C195.877 49.7072 197.902 51.2421 199.74 50.6759L199.837 50.7647C199.252 49.9619 199.152 48.7741 199.289 47.7412C199.543 45.9711 200.237 44.2935 201.308 42.8633C202.379 41.4331 203.792 40.2962 205.416 39.5577C205.861 39.4184 206.259 39.1585 206.566 38.8067C206.828 38.4228 206.73 37.7644 206.279 37.6559C206.034 37.6278 205.787 37.6852 205.579 37.8185L202.163 39.5035C200.438 40.3546 198.678 41.23 197.323 42.5974C195.968 43.9648 195.068 45.9389 195.473 47.823Z" fill="#E6E6E6"/>
<path d="M133.099 117.546C129.917 115.263 126.431 113.437 122.744 112.122C120.478 111.314 118.042 110.698 115.681 111.157C114.386 111.425 113.172 111.996 112.139 112.823C111.105 113.65 110.281 114.71 109.733 115.916C109.205 117.131 108.956 118.45 109.006 119.774C109.056 121.098 109.403 122.395 110.021 123.566C111.11 125.612 112.995 127.241 113.626 129.471C114.051 130.975 113.849 132.576 113.645 134.126C113.227 137.293 112.809 140.459 112.391 143.626C112.01 146.509 111.639 149.509 112.55 152.27C113.46 155.031 116.059 157.465 118.945 157.172L119.517 157.129C117.608 155.827 117.073 153.133 117.641 150.89C118.21 148.646 119.653 146.744 121.062 144.91C125.242 139.469 129.423 134.027 133.604 128.585C135.296 126.384 137.085 123.662 136.183 121.035C135.67 119.541 134.38 118.466 133.099 117.546Z" fill="#E6E6E6"/>
<path d="M111.848 98.8549C111.425 98.711 110.978 99.0307 110.729 99.4029C110.527 99.8027 110.291 100.184 110.022 100.541C109.371 101.214 108.184 101.08 107.482 100.461C106.779 99.8423 106.475 98.8848 106.339 97.9573C106.175 96.8444 106.246 95.6028 106.978 94.7507C107.733 93.8736 108.973 93.6383 110.113 93.4561C111.292 93.2679 112.612 93.111 113.578 93.814C114.186 94.2568 114.54 94.9714 115.104 95.4702C115.667 95.969 116.669 96.158 117.093 95.5359C117.204 95.3153 117.26 95.0712 117.257 94.8243C117.253 94.5773 117.19 94.3349 117.073 94.1177C116.835 93.6849 116.691 93.2061 116.652 92.7133C116.681 92.0294 117.229 91.4859 117.789 91.095C118.35 90.7041 118.983 90.3668 119.351 89.79C119.803 89.0806 119.755 88.1668 120.036 87.3732C120.715 85.4524 123.139 84.598 123.845 82.687C124.015 82.2851 124.034 81.8349 123.899 81.4199C123.603 80.6588 122.804 80.8082 122.755 79.8778C122.708 78.9878 123.449 78.1152 124.201 77.7435C125.239 77.231 126.448 77.2726 127.605 77.2415C128.761 77.2103 130.006 77.0562 130.855 76.2684C131.13 75.9847 131.341 75.646 131.476 75.2745C131.611 74.9031 131.667 74.5072 131.639 74.1129C131.61 73.7186 131.5 73.3346 131.313 72.9862C131.127 72.6378 130.869 72.3327 130.557 72.091C129.925 71.6533 129.126 71.5011 128.51 71.0397C127.744 70.4649 127.381 69.5076 126.785 68.7576C126.288 68.1866 125.72 67.6824 125.094 67.2576C124.582 66.8767 124.07 66.4959 123.558 66.115C122.632 65.4264 121.669 64.7203 120.543 64.475C119.416 64.2297 118.075 64.5768 117.51 65.5845C117.288 66.0336 117.166 66.5262 117.154 67.0275C117.103 68.2077 117.152 69.3903 117.301 70.5622C117.394 71.5055 117.487 72.4488 117.58 73.3921C117.664 74.2378 117.574 75.3527 116.755 75.5722C114.938 76.0591 115.551 73.3663 115.148 72.5414C114.532 71.2787 111.698 70.6723 110.486 70.1461C109.73 69.8175 108.931 69.4547 108.474 68.7666C107.906 67.9102 108.023 66.7446 108.468 65.8181C108.914 64.8915 109.641 64.1374 110.301 63.3496C110.974 62.5466 111.586 61.6952 112.198 60.8446C112.908 59.8582 113.617 58.8717 114.327 57.8853C115.237 56.6201 116.194 55.0761 115.677 53.6049C115.565 53.408 115.398 53.2487 115.196 53.1469C114.994 53.045 114.766 53.0052 114.542 53.0323C114.317 53.0594 114.106 53.1524 113.934 53.2994C113.762 53.4464 113.637 53.6411 113.575 53.859C113.348 54.6532 113.953 55.6673 113.374 56.2559C113.176 56.4158 112.928 56.5008 112.674 56.4961C112.42 56.4913 112.175 56.397 111.983 56.2298C111.609 55.8831 111.323 55.4507 111.152 54.9695C110.451 53.4088 109.769 51.8384 109.049 50.2863C108.822 49.7956 108.585 48.9554 107.896 49.0381C107.298 49.11 106.975 49.9837 106.995 50.4909C107.026 51.229 107.433 51.8884 107.744 52.558C108.055 53.2277 108.272 54.0318 107.931 54.6863C107.498 55.515 106.403 55.7012 105.47 55.6738C103.713 55.6205 101.99 55.1649 100.435 54.3419C100.394 55.208 100.354 56.0741 100.313 56.9402C99.075 56.4208 97.8371 55.9014 96.5992 55.3821C96.3588 55.2812 96.1184 55.1803 95.8779 55.0794C94.8337 54.6413 93.7882 54.2027 92.7132 53.8471C92.103 53.6452 91.4842 53.4703 90.8657 53.2955C90.4897 53.1893 90.1137 53.0831 89.7377 52.9769C88.9957 52.7133 88.2088 52.6008 87.4229 52.6459C86.5972 52.7498 85.8608 53.1943 85.0972 53.5266C83.3936 54.2679 81.1901 53.5222 79.3644 53.509C78.6402 52.4492 77.6626 51.5884 76.5208 51.0052C75.379 50.422 74.1096 50.1351 72.8286 50.1707C71.5477 50.2063 70.296 50.5632 69.1882 51.2089C68.0804 51.8545 67.1518 52.7683 66.4873 53.8666C66.1663 54.4231 65.8805 54.9992 65.6314 55.5915C65.3837 56.148 65.136 56.7044 64.8883 57.2608C64.5249 58.0771 64.1535 58.9371 64.2249 59.8281C64.2964 60.7191 64.9778 61.6293 65.8695 61.6212C63.7668 62.5754 63.3292 65.9145 65.1148 67.3807C65.6092 67.7866 66.2155 68.0522 66.6604 68.5121C66.9967 68.8597 67.2217 69.3001 67.3065 69.7768C67.3913 70.2535 67.332 70.7448 67.1363 71.1875C66.9406 71.6302 66.6174 72.0042 66.2082 72.2615C65.799 72.5188 65.3224 72.6476 64.8396 72.6314C66.0853 73.114 67.4574 73.1589 68.7319 72.7588C70.0063 72.3586 71.1078 71.5371 71.8562 70.4284C72.6196 69.2303 72.9514 67.7336 73.9899 66.7654C75.3652 65.4833 77.6369 65.5828 79.2231 66.5909C80.8093 67.5991 81.8128 69.3157 82.503 71.0666C83.4075 73.3611 83.9864 75.9831 85.9134 77.5179C86.8452 78.26 88.0252 78.6774 88.8488 79.5386C90.0216 80.7649 90.2245 82.6158 90.1981 84.3145C90.1716 86.0131 89.9891 87.7755 90.6064 89.3577C91.2237 90.9398 92.9934 92.2411 94.5804 91.6447C94.1257 92.9967 94.1397 94.4629 94.6199 95.806C95.1002 97.1491 96.0186 98.2904 97.2265 99.0451C96.9374 97.2476 96.6482 95.4501 96.3591 93.6526C97.8001 94.0592 98.7341 95.4602 99.2735 96.86C99.8129 98.2597 100.098 99.7735 100.88 101.053C102.111 103.068 104.34 103.936 106.608 103.929C109.058 103.921 109.989 102.75 111.603 101.025C111.927 100.731 112.174 100.36 112.319 99.947C112.385 99.7386 112.374 99.5133 112.287 99.3127C112.201 99.112 112.045 98.9495 111.848 98.8549Z" fill="#E6E6E6"/>
<path d="M118.784 98.7654C117.415 98.5497 116.045 98.3339 114.676 98.1182C115.394 98.5508 116.112 98.9834 116.829 99.416C117.428 99.8154 118.079 100.13 118.764 100.35C119.107 100.458 119.469 100.495 119.827 100.457C120.185 100.419 120.531 100.308 120.845 100.131L120.669 99.7947C120.393 99.0947 119.526 98.8823 118.784 98.7654Z" fill="#E6E6E6"/>
<path d="M117.855 106.395L117.864 106.372C117.781 106.234 117.659 106.124 117.514 106.057C117.368 105.989 117.206 105.967 117.048 105.992C116.732 106.049 116.41 106.054 116.092 106.008C115.891 105.929 115.711 105.803 115.568 105.64C115.426 105.477 115.324 105.283 115.271 105.072C115.135 104.662 115.095 104.223 114.94 103.819C114.828 103.499 114.63 103.217 114.368 103.003C114.107 102.789 113.791 102.652 113.457 102.606C113.121 102.579 112.788 102.686 112.53 102.903C112.272 103.12 112.11 103.43 112.078 103.766C112.104 104.112 112.214 104.447 112.398 104.741C112.546 105.026 112.693 105.31 112.841 105.595C112.965 105.85 113.109 106.096 113.269 106.33C113.531 106.691 113.873 106.986 114.268 107.192C114.663 107.397 115.101 107.507 115.546 107.514C115.991 107.52 116.431 107.422 116.832 107.228C117.233 107.034 117.583 106.749 117.855 106.395V106.395Z" fill="#E6E6E6"/>
<path d="M109.858 33.3466C110.901 33.9628 112.207 34.3875 112.702 35.4946L112.988 35.5872C112.676 35.9755 112.364 36.3638 112.053 36.7522C111.667 37.2321 111.262 37.7668 111.271 38.3827C111.284 39.231 112.098 39.871 112.92 40.0709C113.798 40.252 114.711 40.0997 115.483 39.6435C116.255 39.1874 116.831 38.4601 117.098 37.6027C117.196 37.2451 117.236 36.8742 117.322 36.5135C117.572 35.6581 117.949 34.8454 118.441 34.1029C121.21 29.4333 123.979 24.7638 126.748 20.0943C127.093 19.5127 127.449 18.8171 127.189 18.1925C127.051 17.9283 126.837 17.7117 126.574 17.5706C126.312 17.4296 126.014 17.3704 125.718 17.4009C125.127 17.4728 124.556 17.665 124.042 17.9656C123.814 17.5634 123.491 17.2227 123.103 16.9729C122.714 16.7231 122.27 16.5716 121.81 16.5314C120.891 16.4602 119.965 16.541 119.071 16.7705C117.052 17.0759 115.105 17.7464 113.325 18.7493C112.351 19.2428 111.28 19.8522 110.997 20.9087C110.649 22.2083 111.769 23.5329 113.059 23.9064C114.349 24.2799 115.725 23.9662 117.03 23.6518C117.178 24.286 117.116 24.9511 116.855 25.5473C116.594 26.1435 116.147 26.6388 115.581 26.9589C115.015 27.279 114.361 27.4067 113.717 27.3229C113.073 27.239 112.473 26.9482 112.007 26.4938C111.072 25.5807 110.614 23.9956 109.329 23.7599C108.049 23.525 107.031 24.8939 106.748 26.1675C106.472 27.5393 106.622 28.9631 107.178 30.2468C107.734 31.5305 108.669 32.6124 109.858 33.3466Z" fill="#E6E6E6"/>
<path d="M125.916 55.8156C125.3 54.0734 124.489 52.4065 123.5 50.8462C122.751 49.6126 121.826 48.4951 120.754 47.5292C119.775 46.6816 118.649 46.0207 117.433 45.5791C116.252 45.151 114.938 44.9396 113.744 45.3298C112.55 45.7201 111.535 46.8326 111.559 48.091C111.586 49.4823 112.8 50.5705 114.066 51.1422C115.332 51.7139 116.74 51.9627 117.934 52.6724C118.746 53.166 119.424 53.852 119.91 54.67C120.395 55.488 120.673 56.4131 120.718 57.3638L121.019 57.8624C120.338 58.0886 119.702 58.4354 119.143 58.8863C118.866 59.1155 118.654 59.4138 118.529 59.7513C118.404 60.0888 118.37 60.4534 118.43 60.8083C118.639 61.6508 119.497 62.1343 120.273 62.5196C121.707 63.2315 123.141 63.9434 124.575 64.6553C123.845 62.473 126.235 60.4422 126.368 58.1443C126.373 57.3457 126.219 56.5541 125.916 55.8156Z" fill="#E6E6E6"/>
<path d="M89.8607 49.9236C90.7306 50.6007 92.0681 50.284 92.8649 49.5219C93.6618 48.7599 94.05 47.6754 94.4119 46.6328C94.2797 47.6648 94.2922 48.7103 94.4491 49.7388C94.5308 50.2532 94.7181 50.7449 94.9992 51.1829C95.2803 51.6209 95.6491 51.9956 96.0822 52.2834C96.4754 52.4996 96.8993 52.6543 97.3391 52.7421C99.3839 53.2085 101.521 53.0555 103.479 52.3024L103.496 51.6313C102.513 51.7438 101.768 50.6625 101.703 49.6724C101.638 48.6823 101.997 47.7113 102.028 46.7196C102.06 45.7278 101.583 44.5691 100.609 44.3926C100.779 44.7359 100.842 45.123 100.787 45.5025C100.733 45.8821 100.564 46.236 100.304 46.5172C100.044 46.7984 99.705 46.9936 99.3316 47.0767C98.9582 47.1598 98.5684 47.127 98.214 46.9826C97.0865 46.5231 96.6769 45.1462 95.8055 44.2943C95.2671 43.8143 94.5992 43.5045 93.8856 43.4039C93.1721 43.3033 92.4448 43.4164 91.7952 43.7289C91.1538 44.057 90.5911 44.5207 90.1461 45.088C89.701 45.6554 89.3841 46.3128 89.2173 47.0149C88.9527 48.0337 89.0312 49.2779 89.8607 49.9236Z" fill="#E6E6E6"/>
<path d="M116.709 42.8569L116.75 42.7912C116.507 42.0883 115.754 41.6762 115.02 41.5716C114.279 41.5226 113.535 41.5472 112.799 41.6451C112.057 41.7414 111.304 41.5752 110.671 41.1751C110.165 40.7961 109.877 40.1999 109.472 39.7137C109.068 39.2275 108.414 38.8277 107.826 39.0602C107.19 39.3119 107.021 40.2052 107.329 40.8167C107.693 41.4036 108.241 41.8522 108.888 42.0916C111.336 43.218 114.09 43.4875 116.709 42.8569Z" fill="#E6E6E6"/>
<path d="M108.353 44.9639C108.149 45.1132 108.011 45.3356 107.968 45.5845C107.924 45.8334 107.978 46.0895 108.119 46.2993C108.26 46.509 108.476 46.6562 108.722 46.7099C108.968 46.7637 109.226 46.7199 109.441 46.5877L109.655 46.8C109.94 46.2878 110.058 45.6018 109.693 45.1432C109.531 44.9531 109.304 44.8296 109.057 44.7965C108.81 44.7634 108.559 44.823 108.353 44.9639Z" fill="#E6E6E6"/>
<path d="M105.84 46.8009C105.843 46.6179 105.79 46.4383 105.69 46.2856C105.589 46.133 105.445 46.0144 105.276 45.9456C105.16 45.9258 105.042 45.9296 104.929 45.9567C104.815 45.9838 104.708 46.0337 104.614 46.1033C104.52 46.173 104.441 46.261 104.382 46.362C104.323 46.4631 104.285 46.575 104.27 46.6912C104.253 46.9279 104.284 47.1656 104.362 47.3898C104.439 47.6139 104.562 47.8196 104.723 47.9941C104.816 48.1347 104.938 48.2538 105.081 48.3436C105.224 48.4335 105.384 48.492 105.55 48.5153C105.887 48.5263 106.229 48.1739 106.093 47.8657L105.58 47.8556C105.738 47.5258 105.826 47.1667 105.84 46.8009Z" fill="#E6E6E6"/>
<path d="M95.8007 41.5313C95.9893 41.6844 96.1778 41.8376 96.3663 41.9908C96.6929 42.2738 97.0456 42.5248 97.4198 42.7406C98.0743 43.104 98.8439 43.1984 99.5665 43.004C99.9232 42.902 100.249 42.7117 100.513 42.4505C100.777 42.1893 100.971 41.8657 101.077 41.5095C101.303 40.6581 100.935 39.774 100.575 38.9704C100.493 38.7404 100.358 38.5333 100.18 38.3662C100.089 38.2854 99.9727 38.2386 99.8512 38.2338C99.7297 38.229 99.6102 38.2665 99.5132 38.3399C99.4427 38.4278 99.3959 38.5323 99.3771 38.6434C99.3583 38.7546 99.3682 38.8687 99.4058 38.9749C99.4832 39.1867 99.5185 39.4115 99.5099 39.6368C99.4741 39.859 99.2413 40.069 99.0364 39.9771L99.0037 40.7336C98.0249 40.2369 97.5072 38.9157 96.4178 38.7855C96.1733 38.7562 95.9255 38.7949 95.7014 38.8971C95.4773 38.9994 95.2855 39.1614 95.147 39.3655C95.0085 39.5695 94.9285 39.8078 94.9158 40.0543C94.9032 40.3008 94.9583 40.546 95.0752 40.7633C95.2643 41.0646 95.5108 41.3256 95.8007 41.5313Z" fill="#E6E6E6"/>
<path d="M93.4684 38.2657C93.6948 38.1101 93.874 37.8948 93.9861 37.6436C94.0983 37.3924 94.139 37.1151 94.1039 36.8421C94.0768 36.71 94.021 36.5854 93.9404 36.4772C93.8598 36.3691 93.7564 36.2801 93.6377 36.2166C93.5189 36.153 93.3876 36.1165 93.2531 36.1096C93.1187 36.1027 92.9843 36.1256 92.8597 36.1766C92.58 36.3862 92.3835 36.6884 92.3052 37.0295C92.0472 37.7589 91.7892 38.4884 91.5312 39.2178L91.9648 38.9016C92.5013 38.7858 93.0113 38.5701 93.4684 38.2657Z" fill="#E6E6E6"/>
<path d="M98.4939 33.7889C98.5713 33.691 98.6264 33.5773 98.6553 33.4557C98.6842 33.3341 98.6862 33.2077 98.661 33.0853C98.6359 32.9629 98.5843 32.8475 98.5099 32.7472C98.4355 32.6469 98.3401 32.5642 98.2303 32.5049L97.6882 32.4541C97.5649 32.4854 97.4506 32.5452 97.3546 32.6287C97.2586 32.7123 97.1834 32.8172 97.1351 32.9351C97.0868 33.0531 97.0668 33.1807 97.0767 33.3078C97.0865 33.4348 97.1259 33.5579 97.1917 33.6669C97.2576 33.776 97.348 33.868 97.4557 33.9357C97.5634 34.0034 97.6855 34.0449 97.8121 34.0567C97.9387 34.0686 98.0664 34.0506 98.1847 34.0041C98.3031 33.9575 98.409 33.8839 98.4939 33.7889Z" fill="#E6E6E6"/>
<path d="M103.484 34.6279C103.99 34.8705 104.631 35.1017 105.071 34.7533C105.201 34.635 105.298 34.4844 105.352 34.3166C105.406 34.1488 105.414 33.9698 105.377 33.7975C105.298 33.4539 105.145 33.1316 104.93 32.853C104.257 31.8843 103.402 31.0566 102.412 30.4163L102.168 30.7348C101.826 31.6241 101.496 32.6623 101.973 33.4869C102.294 34.0428 102.906 34.3506 103.484 34.6279Z" fill="#E6E6E6"/>
<path d="M107.25 35.4194L108.196 35.8483C108.103 35.6863 107.962 35.5576 107.792 35.4806C107.622 35.4037 107.433 35.3822 107.25 35.4194Z" fill="#E6E6E6"/>
<path d="M104.701 38.4033L104.254 38.5509C103.874 39.1771 104.039 39.9778 104.216 40.689C104.327 41.1386 104.569 41.6919 105.03 41.6715C105.48 41.6516 105.679 41.1054 105.765 40.6628C105.899 40.1821 105.914 39.6756 105.807 39.1879C105.746 38.9464 105.602 38.7347 105.399 38.5909C105.196 38.447 104.949 38.3805 104.701 38.4033Z" fill="#E6E6E6"/>
<path d="M97.5755 36.2956L97.9063 36.4291C97.9838 36.418 98.0556 36.3816 98.1104 36.3255C98.1652 36.2694 98.2 36.1967 98.2094 36.1187C98.2188 36.0408 98.2023 35.9619 98.1625 35.8943C98.1226 35.8267 98.0616 35.7742 97.989 35.7448C97.9163 35.7155 97.836 35.711 97.7605 35.7321C97.6851 35.7531 97.6186 35.7985 97.5715 35.8613C97.5244 35.924 97.4993 36.0006 97.5 36.0791C97.5007 36.1576 97.5273 36.2337 97.5755 36.2956Z" fill="#E6E6E6"/>
<path d="M114.249 61.6487C114.088 61.6523 113.931 61.6942 113.79 61.771C113.65 61.8478 113.529 61.9572 113.439 62.0901C113.349 62.223 113.292 62.3756 113.273 62.5351C113.254 62.6946 113.273 62.8564 113.329 63.007C113.653 63.7081 114.772 63.7112 115.269 63.1201C115.397 62.9522 115.488 62.7597 115.537 62.5547C115.587 62.3497 115.593 62.1366 115.556 61.929C115.519 61.7213 115.44 61.5236 115.323 61.3483C115.206 61.173 115.054 61.0239 114.877 60.9104L114.249 61.6487Z" fill="#E6E6E6"/>
<path d="M130.361 78.2572C130.231 78.2919 130.109 78.3524 130.003 78.4352C129.896 78.5179 129.808 78.6212 129.742 78.7388C129.676 78.8565 129.634 78.9862 129.619 79.1202C129.605 79.2543 129.617 79.39 129.655 79.5193L130.584 79.584C130.898 79.4257 131.213 79.2675 131.527 79.1092C131.508 78.9757 131.463 78.8473 131.393 78.7317C131.324 78.6161 131.232 78.5157 131.123 78.4362C131.015 78.3568 130.891 78.3 130.76 78.2693C130.629 78.2385 130.493 78.2344 130.361 78.2572Z" fill="#E6E6E6"/>
<path d="M52.0424 76.6896C51.7767 76.8787 51.5634 77.1326 51.4226 77.4272C51.2819 77.7218 51.2183 78.0475 51.2378 78.3736C51.2681 78.6989 51.4008 79.0061 51.6168 79.2508C51.8328 79.4955 52.1209 79.6649 52.4393 79.7345C52.7607 79.7851 53.0893 79.7113 53.3586 79.5283C53.6279 79.3452 53.8177 79.0665 53.8898 78.7484C54.0469 77.7855 53.0145 77.0803 52.6435 76.1782L52.0424 76.6896Z" fill="#E6E6E6"/>
<path d="M162.657 73.0496C162.755 73.7725 162.106 74.4057 162.081 75.1348C162.053 75.9999 162.992 76.673 163.852 76.5881C164.278 76.514 164.682 76.3417 165.031 76.0848C165.38 75.8279 165.664 75.4934 165.862 75.1076L165.881 75.0265C165.462 74.5523 165.044 74.0781 164.625 73.6038C164.111 73.0215 163.566 72.3586 163.586 71.5812C163.596 71.198 163.747 70.8267 163.738 70.4435C163.718 70.1678 163.657 69.8967 163.556 69.6393C163.443 69.3003 163.289 68.9182 162.951 68.8038C162.528 68.6606 162.101 69.0363 161.899 69.4355C161.717 69.8037 161.629 70.2111 161.642 70.6217C161.655 71.0322 161.768 71.4332 161.973 71.7893C162.217 72.2053 162.592 72.5712 162.657 73.0496Z" fill="#E6E6E6"/>
<path d="M158.709 75.5927C158.801 75.6422 158.902 75.6713 159.005 75.678C159.109 75.6847 159.213 75.6687 159.31 75.6313C159.683 75.5676 160.042 75.4371 160.369 75.2459C160.531 75.1481 160.664 75.0089 160.755 74.8424C160.846 74.676 160.891 74.4883 160.886 74.2986C160.83 74.06 160.704 73.8437 160.525 73.6768C160.345 73.51 160.121 73.4002 159.879 73.3613C159.712 73.3022 159.532 73.2853 159.356 73.3123C159.181 73.3392 159.014 73.409 158.872 73.5156C158.56 73.8089 158.597 74.3066 158.658 74.7309L158.593 74.8414C158.534 75.1034 158.496 75.4292 158.709 75.5927Z" fill="#E6E6E6"/>
<path d="M224.592 106.486C224.501 106.26 224.411 106.034 224.32 105.809C224.196 106.115 224.242 106.429 224.592 106.486Z" fill="#E6E6E6"/>
<path d="M278.939 59.0178C277.777 57.7543 277.065 57.0259 276.332 55.4597C275.933 54.5959 275.326 53.8447 274.567 53.2731C273.807 52.7014 272.919 52.3271 271.98 52.1837C269.569 51.7856 267.106 52.4159 264.667 52.2896C260.759 52.0873 257.236 49.9865 253.494 48.8406C251.399 48.2522 249.265 47.8111 247.109 47.5206C245.866 47.3236 244.623 47.1266 243.381 46.9297C239.308 46.284 235.209 45.6364 231.086 45.7221C229.897 45.7469 228.241 45.3887 228.336 44.2006C228.454 42.7249 231.103 42.9187 231.612 41.5291C231.927 40.6696 231.173 39.7671 230.346 39.3784C229.519 38.9897 228.564 38.8729 227.813 38.351C227.062 37.8292 226.651 36.6195 227.341 36.0193C225.428 37.0021 223.516 37.9849 221.603 38.9677C220.013 39.7848 218.236 40.8478 217.955 42.6167C216.997 42.8705 216.159 43.4544 215.587 44.2659C214.511 44.2715 213.666 45.3068 213.488 46.3705C213.311 47.4341 213.634 48.5106 213.952 49.5405C213.562 48.7913 213.148 48.0134 212.46 47.5245C211.772 47.0356 210.725 46.9425 210.139 47.5499C209.537 48.1731 209.678 49.2187 210.103 49.9738C210.529 50.7289 211.183 51.3383 211.585 52.1066C212.839 54.5059 210.566 57.8838 207.877 57.6165C208.057 55.139 208.237 52.6614 208.418 50.1839C208.532 49.4218 208.468 48.6436 208.231 47.9105C207.938 47.2013 207.187 46.6188 206.439 46.7863C205.095 47.0874 205.21 49.0609 205.769 50.3225C206.328 51.5841 206.885 53.3386 205.744 54.1112C205.007 54.6101 204.008 54.302 203.212 53.9037C202.416 53.5055 201.565 53.0147 200.695 53.2008C199.826 53.3868 199.279 54.7196 200.047 55.1683C198.773 54.9463 197.498 54.7243 196.224 54.5023C196.161 54.8784 196.02 55.2369 195.81 55.5549C195.6 55.8729 195.325 56.1431 195.005 56.3482C194.684 56.5533 194.324 56.6887 193.948 56.7456C193.572 56.8025 193.188 56.7797 192.821 56.6786C192.696 56.1589 192.571 55.6391 192.445 55.1194C192.259 55.0674 192.072 55.0153 191.886 54.9632C192.471 55.1266 191.555 57.6013 190.734 59.4917C189.631 59.3619 188.017 59.3369 187.833 59.0199C186.952 57.5016 187.057 53.8851 185.525 53.0309C184.757 52.6025 183.97 52.2122 183.163 51.8599C182.739 51.6576 182.291 51.5102 181.83 51.4212C180.889 51.2726 179.941 51.565 179.034 51.8539C177.961 52.1952 176.864 52.5494 175.976 53.2421C175.218 53.9013 174.568 54.676 174.05 55.5378C172.297 58.1384 170.544 60.739 168.791 63.3396C168.269 64.0341 167.858 64.806 167.573 65.6275C167.439 66.0361 167.394 66.4688 167.442 66.8962C167.49 67.3236 167.63 67.7356 167.851 68.1041C168.084 68.4653 168.432 68.7374 168.838 68.8765C169.244 69.0156 169.685 69.0137 170.09 68.871C170.598 68.6505 171.107 68.1509 171.61 68.3817C171.992 68.5564 172.087 69.0588 172.047 69.4772C171.95 69.8868 171.942 70.3126 172.025 70.7254C172.254 71.3767 173.136 71.6033 173.765 71.3214C174.376 70.987 174.834 70.4277 175.043 69.7614C175.649 68.2034 175.587 66.4795 175.738 64.8141C175.889 63.1487 176.343 61.3674 177.653 60.3319C178.045 60.0219 178.621 59.7984 179.025 60.0932C179.176 60.2309 179.28 60.4125 179.324 60.6125C179.367 60.8126 179.347 61.0212 179.266 61.2092C179.097 61.5812 178.877 61.9277 178.612 62.2385C178.165 62.8696 177.852 63.5864 177.692 64.3441C177.533 65.1018 177.531 65.8842 177.686 66.6427L177.954 66.8088C178.975 66.5433 180.342 67.0187 181.698 67.4747C180.714 67.7681 179.847 68.3657 179.222 69.1821C177.655 71.3865 176.52 73.4725 173.419 73.4463C172.684 73.4401 171.954 73.2944 171.219 73.2928C170.476 73.2468 169.745 73.4909 169.178 73.974C168.621 74.5213 168.448 75.3546 167.971 75.9738C167.344 76.7879 166.295 77.119 165.338 77.4888C164.638 77.759 163.9 78.1235 163.578 78.8026C163.376 79.3595 163.33 79.9612 163.444 80.5428C163.552 81.5712 163.742 82.7409 164.613 83.2961C164.938 83.4663 165.294 83.5699 165.66 83.6009C166.026 83.632 166.394 83.5898 166.744 83.4768C167.649 83.256 168.535 82.8403 169.464 82.9024C170.924 82.9999 172.126 84.4045 172.141 85.871C172.149 86.6133 171.933 87.4648 172.423 88.0207C172.885 88.543 173.8 88.4499 174.277 87.9428C174.5 87.6731 174.652 87.3529 174.723 87.0102C174.793 86.6676 174.778 86.3129 174.68 85.9772C174.477 85.3085 174.165 84.6782 173.756 84.1119C174.242 83.9857 174.757 84.0321 175.212 84.2433C175.668 84.4544 176.037 84.8172 176.255 85.27C176.58 85.9921 176.475 86.8253 176.578 87.6103C176.682 88.3954 177.159 89.268 177.947 89.3132C178.205 89.3204 178.457 89.237 178.66 89.0773C178.863 88.9176 179.004 88.6918 179.058 88.439C179.067 88.0406 179.045 87.6421 178.994 87.2469C179.021 86.8579 179.195 86.494 179.481 86.2298C179.767 85.9655 180.143 85.821 180.532 85.8258C180.292 86.2703 180.214 86.7846 180.311 87.2804C180.408 87.7763 180.675 88.2228 181.064 88.5434C181.665 89.009 182.458 89.1131 183.206 89.2432C183.953 89.3733 184.751 89.579 185.234 90.1662C186.038 91.1442 185.054 91.5847 184.901 92.4129C184.713 93.4297 185.56 94.9313 185.886 95.9041C187.381 98.0013 188.877 100.099 190.372 102.196C190.706 102.706 191.1 103.174 191.545 103.589C193.022 104.86 195.456 104.735 196.871 103.397C197.558 102.7 198.003 101.802 198.143 100.833C198.283 99.8646 198.109 98.8765 197.647 98.0141C196.772 96.4176 195.038 95.4289 194.182 93.8222C195.607 95.0046 197.356 95.7257 199.199 95.8903C202.459 96.5543 205.556 97.8563 208.313 99.7218C208.443 102.609 209.548 105.367 211.448 107.542C211.789 105.077 212.935 102.796 214.707 101.053C215.859 99.9271 217.434 99.0189 219.015 99.3218C220.595 99.6247 221.795 101.645 220.839 102.943C221.64 103.003 222.441 103.062 223.242 103.122C223.601 104.018 223.961 104.913 224.32 105.809C224.384 105.62 224.506 105.458 224.669 105.344C224.832 105.231 225.027 105.173 225.225 105.179C225.975 105.292 226.501 105.992 227.215 106.25C228.56 106.737 229.997 105.388 230.171 103.966C230.345 102.543 229.67 101.17 229.014 99.896C230.463 100.165 231.959 100.005 233.318 99.4346C234.677 98.8645 235.842 97.9095 236.668 96.6865C237.494 95.4635 237.947 94.0255 237.97 92.5485C237.994 91.0716 237.587 89.6199 236.8 88.371C238.36 86.7296 240.194 85.3755 242.221 84.3708C244.097 83.4419 246.148 82.8044 247.788 81.5015C249.427 80.1986 250.576 77.9361 249.788 75.9938C249.231 74.6217 247.834 73.6904 247.416 72.2695C246.811 70.2127 248.649 68.0853 250.726 67.5714C252.803 67.0575 254.972 67.6891 257.018 68.3158C256.704 66.2055 259.144 64.2272 261.137 64.9765C261.972 64.6377 262.806 64.299 263.641 63.9602C262.674 66.0985 260.577 67.459 259.035 69.2268C257.493 70.9946 256.575 73.8734 258.186 75.5784C260.494 73.4812 262.803 71.384 265.111 69.2868C267.526 67.093 269.94 64.8993 272.355 62.7056C272.239 62.3661 272.124 62.0266 272.009 61.6871C274.293 60.8174 276.754 60.098 278.939 59.0178Z" fill="#E6E6E6"/>
<path d="M159.041 87.2436C158.947 87.3782 158.898 87.5383 158.898 87.7022C158.899 87.8661 158.95 88.0258 159.045 88.1594C159.169 88.265 159.326 88.3239 159.489 88.3261C159.651 88.3283 159.81 88.2736 159.936 88.1714C160.184 87.9593 160.378 87.6906 160.501 87.3881C160.621 87.6206 160.809 87.8105 161.041 87.9319C161.272 88.0534 161.535 88.1005 161.794 88.0668C162.311 87.9887 162.801 87.7839 163.221 87.4705C163.553 87.2751 163.847 87.0197 164.087 86.7172C164.206 86.5648 164.287 86.3867 164.325 86.1971C164.363 86.0076 164.356 85.8118 164.305 85.6254C164.18 85.3396 163.987 85.0892 163.742 84.897C163.131 84.3314 162.52 83.7658 161.909 83.2002L161.702 83.1381C161.594 83.0232 161.465 82.9313 161.321 82.8679C161.177 82.8046 161.021 82.771 160.864 82.7694C160.707 82.7677 160.551 82.7979 160.405 82.8581C160.26 82.9184 160.128 83.0075 160.018 83.1201C159.639 83.5457 159.637 84.1815 159.695 84.7493C159.753 85.317 159.843 85.9218 159.591 86.4335C159.446 86.7268 159.202 86.959 159.041 87.2436Z" fill="#E6E6E6"/>
<path d="M194.479 106.563C192.105 106.033 189.932 104.833 188.217 103.105C186.502 101.377 185.316 99.193 184.8 96.811C184.575 95.6869 184.473 94.4587 183.727 93.5896C183.005 92.7483 181.825 92.4446 180.717 92.4447C179.61 92.4448 178.518 92.7002 177.413 92.7693C175.481 92.8901 173.434 92.3785 172.052 91.0191C171.398 90.3755 170.902 89.558 170.138 89.0503C169.111 88.368 167.749 88.3685 166.579 88.7551C165.275 89.1857 164.232 90.3641 162.807 90.2019C161.325 90.0332 159.607 89.508 159.025 91.4645C158.858 92.0278 158.915 92.6456 158.703 93.1937C158.377 94.0383 157.51 94.5145 156.824 95.1045C155.443 96.2929 154.708 98.0983 154.461 99.9061C154.214 101.714 154.405 103.55 154.597 105.364C154.7 106.343 154.836 107.396 155.507 108.115C156.442 109.117 158.01 109.078 159.374 108.965C160.959 108.834 162.544 108.703 164.128 108.572C164.983 108.501 165.956 108.471 166.564 109.077C166.929 109.439 167.083 109.964 167.403 110.367C167.691 110.709 168.086 110.944 168.524 111.032C168.961 111.12 169.416 111.058 169.814 110.854C169.492 111.429 169.317 112.075 169.304 112.735C169.291 113.394 169.441 114.046 169.739 114.634C170.038 115.222 170.476 115.727 171.016 116.104C171.555 116.481 172.179 116.719 172.833 116.797L172.955 116.874C171.94 118.616 170.888 120.571 171.308 122.543C171.669 124.234 173.066 125.59 173.295 127.304C173.504 128.876 172.686 130.484 173.048 132.029C173.415 133.593 174.99 134.683 176.589 134.8C178.187 134.916 179.758 134.205 180.996 133.185C182.234 132.165 183.192 130.851 184.135 129.552C184.718 128.75 185.315 127.916 185.515 126.944C185.728 125.911 185.481 124.765 185.983 123.837C186.561 122.766 187.934 122.365 188.627 121.365C189.524 120.071 188.996 118.308 189.194 116.744C189.685 112.874 194.59 110.462 194.479 106.563Z" fill="#E6E6E6"/>
<path d="M193.771 119.774C193.637 120.379 193.072 120.777 192.535 121.081C191.997 121.385 191.405 121.692 191.131 122.246C190.85 122.815 190.979 123.492 191.126 124.108C191.431 125.391 191.791 126.66 192.205 127.913C193.008 126.393 193.708 124.821 194.303 123.207C194.554 122.607 194.71 121.97 194.763 121.321C194.788 120.996 194.744 120.669 194.635 120.362C194.526 120.055 194.354 119.774 194.13 119.538L193.771 119.774Z" fill="#E6E6E6"/>
<path d="M226.784 113.044C226.11 112.264 225.436 111.484 224.762 110.704C224.301 110.171 223.775 109.601 223.077 109.512L222.789 109.696C223.373 111.091 223.958 112.486 224.542 113.881C224.749 114.518 225.113 115.092 225.601 115.55C226.124 115.962 226.972 116.041 227.409 115.538C227.549 115.349 227.638 115.126 227.666 114.892C227.694 114.658 227.66 114.421 227.567 114.205C227.377 113.774 227.112 113.381 226.784 113.044Z" fill="#E6E6E6"/>
<path d="M233.315 114.537C233.57 114.449 233.804 114.308 234.001 114.123C234.198 113.939 234.355 113.715 234.461 113.467C234.67 112.969 234.808 112.444 234.871 111.908C234.986 111.209 235.101 110.511 235.217 109.813L235.066 109.774C234.919 109.703 234.753 109.688 234.596 109.732C234.44 109.776 234.304 109.874 234.215 110.01C234.045 110.288 233.917 110.588 233.834 110.903C233.791 111.06 233.713 111.206 233.607 111.329C233.5 111.451 233.367 111.549 233.218 111.613C232.677 111.776 232.164 111.202 231.6 111.224C231.371 111.253 231.16 111.359 230.999 111.524C230.839 111.689 230.739 111.904 230.716 112.133C230.683 112.596 230.814 113.056 231.086 113.432C231.567 114.182 232.461 114.784 233.315 114.537Z" fill="#E6E6E6"/>
<path d="M237.039 115.861L238.593 111.76C237.963 112.218 237.481 112.85 237.205 113.578C236.929 114.307 236.872 115.101 237.039 115.861Z" fill="#E6E6E6"/>
<path d="M244.97 112.556L244.656 112.569C244.515 112.847 244.441 113.154 244.438 113.466C244.435 113.778 244.503 114.086 244.638 114.367C244.914 114.928 245.315 115.416 245.81 115.795C246.578 116.43 247.454 116.921 248.396 117.242C249.777 117.646 251.205 117.867 252.644 117.898C253.466 117.952 254.288 118.006 255.111 118.06C255.502 118.086 256.009 118.036 256.118 117.658C256.208 117.346 255.942 117.052 255.695 116.843C253.519 115.007 250.881 113.807 248.071 113.374C247.005 113.212 245.874 113.145 244.97 112.556Z" fill="#E6E6E6"/>
<path d="M253.744 123.439C253.153 122.864 252.562 122.289 251.97 121.714C251.395 121.155 250.533 120.563 249.874 121.019C249.495 121.282 249.379 121.794 249.057 122.124C248.862 122.3 248.626 122.424 248.37 122.485C248.115 122.546 247.848 122.542 247.595 122.473C247.09 122.331 246.612 122.104 246.182 121.803L244.715 120.89C244.208 120.575 243.702 120.26 243.196 119.945L242.053 121.058C242.103 120.51 241.374 120.154 240.869 120.371C240.63 120.506 240.423 120.693 240.266 120.919C240.108 121.145 240.003 121.403 239.959 121.675C239.875 122.219 239.729 122.751 239.522 123.261C238.942 124.374 237.533 124.704 236.294 124.891C235.055 125.077 233.651 125.34 232.987 126.406C232.435 127.293 232.6 128.433 232.785 129.463L233.483 133.359C233.516 133.831 233.705 134.279 234.02 134.631C234.634 135.174 235.584 134.844 236.333 134.513C237.899 133.758 239.579 133.27 241.304 133.069C243.045 132.874 244.797 133.323 246.229 134.333C247.118 135.011 247.795 135.95 248.736 136.552C249.384 136.943 250.113 137.18 250.867 137.246C251.62 137.312 252.379 137.205 253.085 136.932C254.5 136.368 255.671 135.321 256.392 133.976C257.033 132.79 257.354 131.458 257.325 130.109C257.296 128.761 256.917 127.444 256.225 126.287C255.52 125.238 254.686 124.282 253.744 123.439Z" fill="#E6E6E6"/>
<path d="M252.004 139.313C251.862 139.486 251.779 139.699 251.767 139.923C251.755 140.146 251.815 140.368 251.938 140.554C252.195 140.925 252.588 141.178 253.031 141.26C253.47 141.339 253.917 141.359 254.361 141.321L254.374 140.989C254.256 140.405 253.987 139.863 253.595 139.416C253.167 139.007 252.41 138.882 252.004 139.313Z" fill="#E6E6E6"/>
<path d="M267.231 139.668L267.019 139.591C266.514 140.353 266.009 141.115 265.505 141.878C265.233 142.288 264.95 142.781 265.116 143.244C265.312 143.793 266.037 143.953 266.599 143.808C267.029 143.691 267.417 143.454 267.716 143.124C268.016 142.794 268.216 142.386 268.292 141.946C268.354 141.504 268.287 141.053 268.099 140.649C267.91 140.245 267.609 139.904 267.231 139.668Z" fill="#E6E6E6"/>
<path d="M271.079 137.249L269.686 136.139C269.668 136.654 269.649 137.169 269.63 137.684L269.578 137.685C269.899 137.967 270.203 138.269 270.486 138.59C270.812 138.868 271.359 138.995 271.638 138.669C271.722 138.553 271.769 138.414 271.774 138.271C271.78 138.127 271.743 137.986 271.668 137.863C271.515 137.621 271.315 137.412 271.079 137.249Z" fill="#E6E6E6"/>
<path d="M245.911 88.95C245.326 88.9316 244.679 88.896 244.226 89.2668C244.077 89.4003 243.947 89.5531 243.838 89.7211L243.678 89.9452C243.439 90.2589 243.23 90.5948 243.055 90.9484C242.964 91.1141 242.909 91.2976 242.895 91.4864C242.88 91.6752 242.906 91.8649 242.971 92.0428C243.008 92.1278 243.064 92.2035 243.134 92.2646C243.204 92.3257 243.286 92.3706 243.375 92.3963C243.464 92.4219 243.558 92.4276 243.649 92.413C243.741 92.3983 243.828 92.3637 243.905 92.3116C244.155 92.0796 244.096 91.6588 244.285 91.3747C244.369 91.2677 244.475 91.1816 244.597 91.1231C244.72 91.0646 244.853 91.0353 244.989 91.0376C245.259 91.0443 245.527 91.0748 245.792 91.1286C246.525 91.2292 247.271 91.1175 247.943 90.8067C248.614 90.4958 249.183 89.9988 249.582 89.3744C249.981 88.7499 250.193 88.0241 250.193 87.2827C250.194 86.5412 249.983 85.8151 249.585 85.1901L249.538 85.0462C249.133 85.0307 248.735 85.1579 248.415 85.4058C248.094 85.6537 247.87 86.0065 247.782 86.4028C247.651 87.0855 247.928 87.8787 247.515 88.4372C247.167 88.9082 246.495 88.9683 245.911 88.95Z" fill="#E6E6E6"/>
<path d="M251.143 81.7119L251.054 81.7041C250.531 81.7999 250.029 81.9873 249.571 82.2578C249.421 82.3277 249.301 82.4497 249.233 82.6012C249.214 82.6816 249.214 82.7657 249.234 82.846C249.255 82.9262 249.295 83.0001 249.351 83.0609C249.465 83.1812 249.598 83.2814 249.744 83.3574C249.963 83.5037 250.204 83.6119 250.459 83.6778C250.587 83.7093 250.72 83.7086 250.847 83.6756C250.975 83.6427 251.092 83.5785 251.188 83.4889C251.279 83.3643 251.341 83.2214 251.37 83.0702C251.4 82.919 251.396 82.7631 251.359 82.6135C251.317 82.3064 251.245 82.0043 251.143 81.7119Z" fill="#E6E6E6"/>
<path d="M242.129 89.124C242.269 88.8996 242.368 88.6523 242.423 88.3934C242.477 88.1924 242.532 87.9914 242.586 87.7904L242.004 87.4355C241.725 87.5808 241.469 87.7643 241.241 87.9806C241.127 88.0896 241.038 88.2209 240.978 88.3663C240.917 88.5117 240.888 88.668 240.891 88.8254C240.899 88.9827 240.96 89.1327 241.064 89.2508C241.167 89.369 241.308 89.4485 241.463 89.4763C241.595 89.4803 241.726 89.45 241.842 89.3882C241.959 89.3265 242.058 89.2354 242.129 89.124Z" fill="#E6E6E6"/>
<path d="M178.65 34.8072C178.419 34.9512 178.484 35.2992 178.578 35.5548C178.685 35.8482 178.792 36.1415 178.9 36.4349L179.05 35.8654C179.182 35.6445 179.24 35.3872 179.216 35.1309C179.164 34.8806 178.866 34.672 178.65 34.8072Z" fill="#E6E6E6"/>
<path d="M305.324 87.6551H207.86C205.511 87.6524 203.259 86.7159 201.598 85.0509C199.937 83.3859 199.003 81.1284 199 78.7737V8.88135C199.003 6.52669 199.937 4.26924 201.598 2.60424C203.259 0.939248 205.511 0.00267871 207.86 0H305.324C307.673 0.00267769 309.925 0.939248 311.586 2.60424C313.247 4.26924 314.181 6.52669 314.184 8.88135V78.7737C314.181 81.1284 313.247 83.3859 311.586 85.0509C309.925 86.7159 307.673 87.6524 305.324 87.6551Z" fill="white"/>
<path d="M305.324 87.6551H207.86C205.511 87.6524 203.259 86.7159 201.598 85.0509C199.937 83.3859 199.003 81.1284 199 78.7737V8.88135C199.003 6.52669 199.937 4.26924 201.598 2.60424C203.259 0.939248 205.511 0.00267871 207.86 0H305.324C307.673 0.00267769 309.925 0.939248 311.586 2.60424C313.247 4.26924 314.181 6.52669 314.184 8.88135V78.7737C314.181 81.1284 313.247 83.3859 311.586 85.0509C309.925 86.7159 307.673 87.6524 305.324 87.6551ZM207.86 0.772291C205.715 0.774702 203.659 1.62982 202.143 3.15004C200.626 4.67026 199.773 6.73143 199.77 8.88135V78.7737C199.773 80.9236 200.626 82.9848 202.143 84.505C203.659 86.0252 205.715 86.8803 207.86 86.8828H305.324C307.468 86.8803 309.525 86.0252 311.041 84.505C312.558 82.9848 313.411 80.9236 313.413 78.7737V8.88135C313.411 6.73143 312.558 4.67026 311.041 3.15004C309.525 1.62982 307.468 0.774702 305.324 0.772291H207.86Z" fill="#3F3D56"/>
<path d="M234.38 11.6419H218.971C218.562 11.6419 218.17 11.4792 217.881 11.1895C217.592 10.8998 217.43 10.507 217.43 10.0973C217.43 9.68767 217.592 9.2948 217.881 9.00513C218.17 8.71547 218.562 8.55273 218.971 8.55273H234.38C234.788 8.55273 235.18 8.71547 235.469 9.00513C235.758 9.2948 235.921 9.68767 235.921 10.0973C235.921 10.507 235.758 10.8998 235.469 11.1895C235.18 11.4792 234.788 11.6419 234.38 11.6419Z" fill="#CCCCCC"/>
<circle cx="228.684" cy="24.5" r="10" fill="url(#paint0_linear_189_289)" stroke="#FEDA3E"/>
<circle cx="256.684" cy="24.5" r="10" fill="url(#paint1_linear_189_289)" stroke="#FEDA3E"/>
<circle cx="285.684" cy="24.5" r="10" fill="url(#paint2_linear_189_289)" stroke="#FEDA3E"/>
<path d="M267.895 45.3948H218.971C218.562 45.3948 218.17 45.2321 217.881 44.9424C217.592 44.6528 217.43 44.2599 217.43 43.8502C217.43 43.4406 217.592 43.0477 217.881 42.7581C218.17 42.4684 218.562 42.3057 218.971 42.3057H267.895C268.304 42.3057 268.695 42.4684 268.984 42.7581C269.273 43.0477 269.436 43.4406 269.436 43.8502C269.436 44.2599 269.273 44.6528 268.984 44.9424C268.695 45.2321 268.304 45.3948 267.895 45.3948Z" fill="#CCCCCC"/>
<path d="M219.741 74.8916H217.43V75.6639H219.741V74.8916Z" fill="#3F3D56"/>
<path d="M287.604 75.6639H282.756V74.8916H287.604V75.6639ZM277.909 75.6639H273.061V74.8916H277.909V75.6639ZM268.214 75.6639H263.366V74.8916H268.214V75.6639ZM258.519 75.6639H253.671V74.8916H258.519L258.519 75.6639ZM248.824 75.6639H243.976V74.8916H248.824V75.6639ZM239.129 75.6639H234.281V74.8916H239.129L239.129 75.6639ZM229.433 75.6639H224.586V74.8916H229.433V75.6639Z" fill="#3F3D56"/>
<path d="M294.765 74.8916H292.453V75.6639H294.765V74.8916Z" fill="#3F3D56"/>
<path d="M256.661 61.2271H254.734V74.356H256.661V61.2271Z" fill="#FDDE55"/>
<path d="M276.305 61.2271H274.379V74.356H276.305V61.2271Z" fill="#FDDE55"/>
<path d="M285.934 68.5635H284.008V74.3557H285.934V68.5635Z" fill="#FDDE55"/>
<path d="M266.289 55.4346H264.363V74.3557H266.289V55.4346Z" fill="#FDDE55"/>
<path d="M99.3114 90.6338C100.588 90.6338 101.623 89.5965 101.623 88.3169C101.623 87.0373 100.588 86 99.3114 86C98.0348 86 97 87.0373 97 88.3169C97 89.5965 98.0348 90.6338 99.3114 90.6338Z" fill="#0D7C68"/>
<path d="M125.311 120.634C126.588 120.634 127.623 119.596 127.623 118.317C127.623 117.037 126.588 116 125.311 116C124.035 116 123 117.037 123 118.317C123 119.596 124.035 120.634 125.311 120.634Z" fill="#0D7C68"/>
<path d="M118.311 132.634C119.588 132.634 120.623 131.596 120.623 130.317C120.623 129.037 119.588 128 118.311 128C117.035 128 116 129.037 116 130.317C116 131.596 117.035 132.634 118.311 132.634Z" fill="#0D7C68"/>
<path d="M104.819 76.2866C106.096 76.2866 107.131 75.2493 107.131 73.9697C107.131 72.6901 106.096 71.6528 104.819 71.6528C103.543 71.6528 102.508 72.6901 102.508 73.9697C102.508 75.2493 103.543 76.2866 104.819 76.2866Z" fill="#0D7C68"/>
<path d="M172.62 67.4052C173.897 67.4052 174.931 66.3679 174.931 65.0884C174.931 63.8088 173.897 62.7715 172.62 62.7715C171.343 62.7715 170.309 63.8088 170.309 65.0884C170.309 66.3679 171.343 67.4052 172.62 67.4052Z" fill="#0D7C68"/>
<path d="M185.311 81.6337C186.588 81.6337 187.623 80.5964 187.623 79.3169C187.623 78.0373 186.588 77 185.311 77C184.035 77 183 78.0373 183 79.3169C183 80.5964 184.035 81.6337 185.311 81.6337Z" fill="#0D7C68"/>
<path d="M166.311 99.6337C167.588 99.6337 168.623 98.5964 168.623 97.3169C168.623 96.0373 167.588 95 166.311 95C165.035 95 164 96.0373 164 97.3169C164 98.5964 165.035 99.6337 166.311 99.6337Z" fill="#0D7C68"/>
<path d="M176.311 108.634C177.588 108.634 178.623 107.596 178.623 106.317C178.623 105.037 177.588 104 176.311 104C175.035 104 174 105.037 174 106.317C174 107.596 175.035 108.634 176.311 108.634Z" fill="#0D7C68"/>
<path d="M33.0164 193.99L36.5027 193.989L38.1611 180.51L33.0156 180.511L33.0164 193.99Z" fill="#FFB6B6"/>
<path d="M32.8947 197.635L43.6155 197.635V197.499C43.6154 196.39 43.1757 195.326 42.3932 194.541C41.6106 193.757 40.5493 193.316 39.4426 193.316H39.4424L37.4841 191.827L33.8304 193.317L32.8945 193.317L32.8947 197.635Z" fill="#2F2E41"/>
<path d="M59.2156 193.99L62.7019 193.989L64.3604 180.51L59.2148 180.511L59.2156 193.99Z" fill="#FFB6B6"/>
<path d="M59.0939 197.635L69.8147 197.635V197.499C69.8146 196.39 69.3749 195.326 68.5924 194.541C67.8099 193.757 66.7485 193.316 65.6419 193.316H65.6416L63.6833 191.827L60.0296 193.317L59.0938 193.317L59.0939 197.635Z" fill="#2F2E41"/>
<path d="M32.8828 84.3395L39.0699 83.4512C41.1624 86.9584 41.906 96.2937 41.906 96.2937L47.961 110.72C48.362 110.993 48.6842 111.367 48.8951 111.804C49.106 112.242 49.1982 112.727 49.1625 113.212C49.1267 113.696 48.9642 114.163 48.6914 114.564C48.4186 114.966 48.045 115.289 47.6083 115.499C47.1715 115.71 46.6871 115.802 46.2037 115.766C45.7203 115.729 45.255 115.566 44.8547 115.292C44.4543 115.018 44.133 114.643 43.9232 114.205C43.7133 113.767 43.6222 113.281 43.6592 112.797L33.7175 96.0059L32.8828 84.3395Z" fill="#FFB6B6"/>
<path d="M36.2375 67.1221C35.2799 67.2708 34.3667 67.6292 33.5629 68.1718C32.7592 68.7144 32.0846 69.4279 31.5872 70.2616C31.0898 71.0952 30.7819 72.0285 30.6852 72.995C30.5886 73.9615 30.7056 74.9375 31.028 75.8535L32.341 79.5838C32.341 79.5838 30.6871 90.8157 33.4128 93.9862L41.7766 93.2273C41.7766 93.2273 40.2474 87.5606 41.4214 84.8189C42.1404 83.1398 42.1004 77.3405 41.392 72.6228C40.851 69.0205 39.829 66.5646 36.2375 67.1221Z" fill="#3F3D56"/>
<path d="M65.0804 100.964C65.0804 100.964 71.5272 107.266 70.1505 108.722C68.7738 110.178 65.6246 112.216 68.5475 112.548C71.4704 112.881 72.6829 113.6 70.1505 114.206C67.6181 114.811 68.0094 116.366 68.0094 116.366C68.0094 116.366 71.822 134.559 68.9327 146.529C68.9327 146.529 67.3247 179.225 66.3157 181.771C65.3067 184.317 64.9214 182.773 65.3067 184.317C65.6919 185.862 66.4624 183.159 65.6919 185.862C65.2715 187.274 64.9386 188.711 64.6952 190.164L57.1592 189.005C57.1592 189.005 55.9459 185.172 57.1592 184.165C58.3725 183.159 59.4609 183.779 58.1463 181.538C56.8316 179.298 56.4464 182.387 56.8316 179.298C57.2168 176.208 55.6086 159.501 58.1463 150.671L53.4567 125.895L46.0115 151.549C46.0115 151.549 42.0624 182.881 40.7793 183.985C39.4962 185.09 37.5701 183.159 39.4962 185.09C41.4224 187.02 41.3887 186.688 41.4224 187.02C41.7811 190.562 30.7521 186.688 30.7521 186.688C30.8134 185.788 30.8134 184.885 30.7521 183.985C30.6359 183.159 32.024 182.895 30.7521 182.061C29.4802 181.228 31.3727 182.055 31.3727 182.055C31.3727 182.055 34.2169 158.94 36.3807 151.935L38.8847 117.825C38.8847 117.825 39.0437 118.505 38.8847 116.851C38.7258 115.197 37.5701 116.356 38.7258 115.197C39.8815 114.039 40.6519 113.449 39.8815 112.585C39.111 111.722 36.9856 109.976 38.2409 108.918C39.4962 107.861 41.9666 100.964 41.9666 100.964L66.0435 101.157" fill="#2F2E41"/>
<path d="M56.0247 62.6687L51.6834 57.7688L44.8236 58.5328L40.4318 64.6937C38.0941 65.2324 36.0512 66.6487 34.7235 68.6512C33.3958 70.6538 32.8843 73.0902 33.2942 75.4592C34.9985 85.2963 40.7904 94.8371 38.8779 99.6907C35.9748 107.058 35.7977 110.063 42.7469 109.03C49.6961 107.997 72.9773 105.616 68.4636 101.092C63.9499 96.5672 62.9585 89.0067 62.9585 89.0067L62.7775 71.7096C62.9694 70.6664 62.9439 69.5946 62.7024 68.5617C62.461 67.5289 62.0089 66.5573 61.3746 65.7081C60.7404 64.8589 59.9376 64.1505 59.0169 63.6274C58.0962 63.1043 57.0774 62.7779 56.0247 62.6687Z" fill="#3F3D56"/>
<path d="M54.8438 81.6366L61.0308 80.7483C63.1233 84.2556 63.8669 93.5908 63.8669 93.5908L69.9219 108.017C70.3229 108.29 70.6451 108.664 70.856 109.101C71.0669 109.539 71.1592 110.024 71.1234 110.509C71.0876 110.993 70.9252 111.46 70.6523 111.862C70.3795 112.263 70.0059 112.586 69.5692 112.797C69.1325 113.008 68.648 113.099 68.1646 113.063C67.6813 113.027 67.216 112.863 66.8156 112.589C66.4153 112.315 66.094 111.94 65.8841 111.502C65.6742 111.064 65.5832 110.579 65.6201 110.094L55.6784 93.3031L54.8438 81.6366Z" fill="#FFB6B6"/>
<path d="M58.1945 64.419C57.2369 64.5677 56.3237 64.9261 55.52 65.4687C54.7162 66.0113 54.0416 66.7248 53.5443 67.5585C53.0469 68.3921 52.7389 69.3254 52.6423 70.2919C52.5456 71.2584 52.6626 72.2344 52.9851 73.1504L54.298 76.8807C54.298 76.8807 52.6441 88.1126 55.3698 91.2831L63.7336 90.5242C63.7336 90.5242 62.2044 84.8575 63.3784 82.1158C64.0974 80.4367 64.0574 74.6373 63.349 69.9197C62.8081 66.3174 61.786 63.8615 58.1945 64.419Z" fill="#3F3D56"/>
<path d="M46.3695 57.3468C50.9487 57.3468 54.6609 53.6258 54.6609 49.0357C54.6609 44.4456 50.9487 40.7246 46.3695 40.7246C41.7903 40.7246 38.0781 44.4456 38.0781 49.0357C38.0781 53.6258 41.7903 57.3468 46.3695 57.3468Z" fill="#FFB6B6"/>
<path d="M44.8453 57.1716C47.1545 56.5917 47.2331 55.9302 49.5423 55.3503C50.2776 55.1657 51.1295 54.8748 51.3475 54.1471C51.3992 53.8809 51.3886 53.6063 51.3166 53.345C51.2445 53.0836 51.1129 52.8426 50.9322 52.6408C50.5684 52.2413 50.2275 51.8214 49.9114 51.3831C49.7019 51.0311 49.5812 50.6332 49.5595 50.2239C49.5379 49.8145 49.616 49.4061 49.7872 49.0338C49.9583 48.6615 50.2173 48.3366 50.5418 48.0872C50.8663 47.8377 51.2465 47.6713 51.6496 47.6021C52.3639 47.4796 53.1005 47.6693 53.8194 47.5775C54.8054 47.4516 56.2556 43.7848 55.6235 43.0159C55.0083 42.2675 53.9984 41.821 53.6591 40.9127C53.4372 40.3187 53.5585 39.6545 53.4597 39.028C53.3131 38.0991 51.4378 40.6711 51.6874 39.7645C52.2997 37.5406 41.9396 37.1904 40.8611 40.0435C40.458 41.1098 39.3667 41.2792 38.5273 42.0489C37.9772 42.5533 36.6614 44.1677 36.4706 45.0377C36.3126 45.9174 36.343 46.8208 36.5598 47.6879C37.4202 51.7525 38.8424 55.3547 42.6278 57.048" fill="#2F2E41"/>
<path d="M0.95016 197.886L311.05 198C311.174 198 311.298 197.989 311.413 197.967C311.529 197.944 311.633 197.912 311.722 197.871C311.81 197.83 311.88 197.781 311.928 197.727C311.975 197.673 312 197.615 312 197.557C312 197.499 311.975 197.441 311.928 197.387C311.88 197.334 311.81 197.285 311.722 197.244C311.633 197.202 311.529 197.17 311.413 197.148C311.298 197.125 311.174 197.114 311.05 197.114L0.95016 197C0.825513 197 0.702024 197.011 0.586761 197.033C0.471498 197.056 0.366726 197.088 0.278459 197.129C0.190192 197.17 0.12017 197.219 0.072386 197.273C0.024602 197.327 0 197.385 0 197.443C0 197.501 0.024602 197.559 0.072386 197.613C0.12017 197.666 0.190192 197.715 0.278459 197.756C0.366726 197.798 0.471498 197.83 0.586761 197.852C0.702024 197.875 0.825513 197.886 0.95016 197.886Z" fill="#CACACA"/>
<defs>
<linearGradient id="paint0_linear_189_289" x1="223.628" y1="14" x2="232.767" y2="35.5833" gradientUnits="userSpaceOnUse">
<stop stop-color="#FEDA3E" stop-opacity="0"/>
<stop offset="1" stop-color="#FEDA3E"/>
</linearGradient>
<linearGradient id="paint1_linear_189_289" x1="251.628" y1="14" x2="260.767" y2="35.5833" gradientUnits="userSpaceOnUse">
<stop stop-color="#FEDA3E" stop-opacity="0"/>
<stop offset="1" stop-color="#FEDA3E"/>
</linearGradient>
<linearGradient id="paint2_linear_189_289" x1="280.628" y1="14" x2="289.767" y2="35.5833" gradientUnits="userSpaceOnUse">
<stop stop-color="#FEDA3E" stop-opacity="0"/>
<stop offset="1" stop-color="#FEDA3E"/>
</linearGradient>
</defs>
</svg>
