<?xml version="1.0" encoding="UTF-8"?>
<svg xmlns="http://www.w3.org/2000/svg" xmlns:xlink="http://www.w3.org/1999/xlink" width="209px" height="200px" viewBox="0 0 208 200" version="1.1">
<defs>
<filter id="alpha" filterUnits="objectBoundingBox" x="0%" y="0%" width="100%" height="100%">
  <feColorMatrix type="matrix" in="SourceGraphic" values="0 0 0 0 1 0 0 0 0 1 0 0 0 0 1 0 0 0 1 0"/>
</filter>
<mask id="mask0">
  <g filter="url(#alpha)">
<rect x="0" y="0" width="208" height="200" style="fill:rgb(0%,0%,0%);fill-opacity:0.101961;stroke:none;"/>
  </g>
</mask>
<mask id="mask1">
  <g filter="url(#alpha)">
<rect x="0" y="0" width="208" height="200" style="fill:rgb(0%,0%,0%);fill-opacity:0.101961;stroke:none;"/>
  </g>
</mask>
<clipPath id="clip2">
  <rect x="0" y="0" width="208" height="200"/>
</clipPath>
<g id="surface6" clip-path="url(#clip2)">
<path style=" stroke:none;fill-rule:nonzero;fill:rgb(0%,0%,0%);fill-opacity:1;" d="M 153.351562 75.214844 C 157.414062 73.472656 162.796875 72.753906 164.308594 74.242188 C 166.273438 76.171875 164.847656 84.882812 162.050781 88.636719 L 165.535156 85.0625 C 168.652344 81.714844 170.351562 72.113281 168.277344 70.074219 C 166.789062 68.609375 161.527344 69.292969 157.484375 70.984375 Z M 153.351562 75.214844 "/>
</g>
<mask id="mask2">
  <g filter="url(#alpha)">
<rect x="0" y="0" width="208" height="200" style="fill:rgb(0%,0%,0%);fill-opacity:0.101961;stroke:none;"/>
  </g>
</mask>
<clipPath id="clip3">
  <rect x="0" y="0" width="208" height="200"/>
</clipPath>
<g id="surface9" clip-path="url(#clip3)">
<path style=" stroke:none;fill-rule:nonzero;fill:rgb(32.941176%,32.941176%,32.941176%);fill-opacity:1;" d="M 127.574219 55.824219 L 127.671875 55.917969 C 130.933594 52.714844 140.269531 50.613281 142.339844 52.648438 C 143.695312 53.980469 143.4375 58.535156 142.230469 62.46875 L 168.269531 35.742188 L 168.367188 35.835938 C 173.113281 31.105469 185.066406 26.320312 187.132812 28.363281 C 189.089844 30.289062 185.34375 41.367188 181.042969 46.695312 L 184.25 43.402344 C 188.851562 38.527344 193.167969 26.234375 191.097656 24.199219 C 189.023438 22.164062 177.066406 26.945312 172.320312 31.679688 L 172.222656 31.585938 L 146.1875 58.3125 C 147.394531 54.375 147.652344 49.824219 146.296875 48.492188 C 144.226562 46.457031 134.890625 48.558594 131.628906 51.761719 L 131.53125 51.667969 L 67.414062 117.480469 L 67.464844 117.527344 Z M 127.574219 55.824219 "/>
</g>
<clipPath id="clip1">
  <rect x="0" y="0" width="208" height="200"/>
</clipPath>
<g id="surface11" clip-path="url(#clip1)">
<use xlink:href="#surface6" mask="url(#mask1)"/>
<use xlink:href="#surface9" mask="url(#mask2)"/>
</g>
<mask id="mask3">
  <g filter="url(#alpha)">
<rect x="0" y="0" width="208" height="200" style="fill:rgb(0%,0%,0%);fill-opacity:0.301961;stroke:none;"/>
  </g>
</mask>
<clipPath id="clip4">
  <rect x="0" y="0" width="208" height="200"/>
</clipPath>
<g id="surface14" clip-path="url(#clip4)">
<path style=" stroke:none;fill-rule:nonzero;fill:rgb(99.607843%,85.490196%,24.313725%);fill-opacity:1;" d="M 28.246094 106.914062 L 104 0 L 20.816406 105.632812 C 20.40625 105.882812 20.125 106.179688 19.996094 106.492188 C 19.867188 106.808594 19.894531 107.128906 20.078125 107.4375 C 20.257812 107.746094 20.589844 108.027344 21.042969 108.261719 C 21.496094 108.496094 22.058594 108.671875 22.683594 108.78125 C 23.304688 108.886719 23.972656 108.921875 24.628906 108.878906 C 25.285156 108.835938 25.914062 108.71875 26.457031 108.539062 C 27 108.355469 27.445312 108.113281 27.757812 107.832031 C 28.070312 107.546875 28.234375 107.234375 28.246094 106.914062 Z M 28.246094 106.914062 "/>
</g>
</defs>
<g id="surface1">
<path style=" stroke:none;fill-rule:nonzero;fill:rgb(94.901961%,94.901961%,94.901961%);fill-opacity:1;" d="M 75.207031 177.84375 C 116.742188 177.84375 150.417969 144.003906 150.417969 102.257812 C 150.417969 60.511719 116.742188 26.667969 75.207031 26.667969 C 33.671875 26.667969 0 60.511719 0 102.257812 C 0 144.003906 33.671875 177.84375 75.207031 177.84375 Z M 75.207031 177.84375 "/>
<path style=" stroke:none;fill-rule:nonzero;fill:rgb(100%,100%,100%);fill-opacity:1;" d="M 171.359375 62.988281 L 180.394531 62.78125 L 180.648438 71.902344 L 177.476562 68.859375 L 174.101562 72.40625 L 171.15625 69.582031 L 174.511719 66.054688 Z M 171.359375 62.988281 "/>
<path style=" stroke:none;fill-rule:nonzero;fill:rgb(100%,100%,100%);fill-opacity:1;" d="M 146.761719 41.519531 L 149.644531 38.488281 L 149.707031 41.222656 L 150.398438 41.195312 L 150.308594 37.289062 L 146.421875 37.375 L 146.4375 38.058594 L 149.148438 38.007812 L 146.261719 41.042969 Z M 146.761719 41.519531 "/>
<path style=" stroke:none;fill-rule:nonzero;fill:rgb(72.941176%,72.941176%,72.941176%);fill-opacity:1;" d="M 143.714844 63.308594 C 146.832031 59.960938 148.535156 50.359375 146.460938 48.320312 C 144.386719 46.285156 135.054688 48.386719 131.789062 51.589844 L 131.691406 51.496094 L 67.574219 117.304688 L 79.601562 129.125 L 143.71875 63.3125 Z M 143.714844 63.308594 "/>
<path style=" stroke:none;fill-rule:nonzero;fill:rgb(72.941176%,72.941176%,72.941176%);fill-opacity:1;" d="M 165.683594 84.898438 C 168.800781 81.550781 170.5 71.949219 168.425781 69.910156 C 166.355469 67.875 157.019531 69.976562 153.757812 73.179688 L 153.660156 73.085938 L 89.542969 138.894531 L 101.570312 150.714844 L 165.683594 84.902344 Z M 165.683594 84.898438 "/>
<path style=" stroke:none;fill-rule:nonzero;fill:rgb(32.941176%,32.941176%,32.941176%);fill-opacity:1;" d="M 184.40625 43.230469 C 189.011719 38.355469 193.328125 26.066406 191.257812 24.027344 C 189.183594 21.992188 177.226562 26.777344 172.488281 31.5 L 172.390625 31.40625 L 78.378906 127.902344 L 90.402344 139.722656 L 184.417969 43.222656 Z M 184.40625 43.230469 "/>
<path style=" stroke:none;fill-rule:nonzero;fill:rgb(42.352941%,38.823529%,100%);fill-opacity:1;" d="M 123.367188 84.820312 L 132.40625 84.613281 L 132.652344 93.734375 L 129.484375 90.691406 L 126.109375 94.242188 L 123.164062 91.414062 L 126.515625 87.886719 Z M 123.367188 84.820312 "/>
<use xlink:href="#surface11" mask="url(#mask0)"/>
<path style=" stroke:none;fill-rule:nonzero;fill:rgb(92.54902%,92.54902%,95.294118%);fill-opacity:1;" d="M 187.238281 28.253906 C 186.609375 27.636719 185.605469 27.648438 184.992188 28.277344 L 182.394531 30.941406 C 181.78125 31.574219 181.792969 32.582031 182.421875 33.199219 L 182.421875 33.203125 C 183.050781 33.816406 184.054688 33.808594 184.667969 33.175781 L 187.265625 30.511719 C 187.878906 29.882812 187.867188 28.871094 187.238281 28.253906 Z M 187.238281 28.253906 "/>
<path style=" stroke:none;fill-rule:nonzero;fill:rgb(24.705882%,23.921569%,33.72549%);fill-opacity:1;" d="M 167.160156 124.359375 C 165.078125 125.054688 162.804688 125.679688 160.34375 126.230469 C 147.621094 129.085938 131.414062 129.65625 114.710938 127.839844 C 98.011719 126.023438 82.808594 122.035156 71.90625 116.609375 C 66.59375 113.96875 62.589844 111.125 60.003906 108.160156 C 57.269531 105.023438 56.230469 101.839844 56.921875 98.695312 C 58.269531 92.570312 65.742188 88.835938 71.773438 86.785156 L 71.699219 87.632812 C 63.417969 90.453125 59.59375 94.351562 58.640625 98.695312 C 57.421875 104.230469 62.398438 110.277344 73.023438 115.5625 C 83.898438 120.976562 98.035156 124.417969 114.710938 126.230469 C 131.386719 128.046875 147.648438 127.207031 160.34375 124.359375 C 172.746094 121.578125 179.121094 117.871094 180.339844 112.339844 C 181.351562 107.742188 179.351562 102.601562 171.917969 97.953125 L 172.207031 97.125 C 177.609375 100.503906 183.753906 105.886719 182.332031 112.339844 C 181.640625 115.480469 179.28125 118.296875 175.320312 120.707031 C 173.066406 122.082031 170.335938 123.300781 167.160156 124.359375 Z M 167.160156 124.359375 "/>
<path style=" stroke:none;fill-rule:nonzero;fill:rgb(99.607843%,85.490196%,24.313725%);fill-opacity:1;" d="M 68.953125 123.507812 L 65.027344 127.597656 C 64.601562 125.742188 62.46875 124.722656 60.550781 125.457031 C 58.628906 126.195312 57.273438 128.554688 57.707031 130.40625 C 56.09375 130.675781 54.863281 129.5 53.761719 128.496094 C 52.664062 127.488281 51.128906 126.546875 49.59375 127.277344 C 48.359375 127.863281 47.664062 129.367188 47.664062 130.667969 C 47.664062 131.964844 48.203125 133.105469 48.734375 134.207031 C 46.261719 133.21875 42.84375 134.410156 41.042969 136.890625 C 39.242188 139.371094 39.265625 142.851562 41.097656 144.726562 C 38.488281 143.9375 35.023438 145.742188 33.789062 148.539062 C 32.539062 151.355469 33.5 154.316406 34.730469 156.75 C 37.847656 162.941406 42.71875 168.074219 48.726562 171.503906 C 51.023438 172.808594 53.539062 173.878906 56.316406 174.03125 C 59.09375 174.179688 62.183594 173.304688 64.429688 171.203125 C 61.210938 172.828125 59.929688 177.246094 60.992188 180.316406 C 62.058594 183.390625 64.804688 185.332031 67.628906 186.785156 C 71.386719 188.71875 76.085938 190.015625 80.351562 187.808594 C 82.464844 186.714844 84.1875 184.898438 85.851562 183.125 L 89.074219 179.6875 C 90.378906 178.300781 91.699219 176.886719 92.59375 175.230469 C 93.488281 173.574219 93.90625 171.609375 93.277344 170.066406 C 95.023438 169.769531 96.832031 169.449219 98.421875 168.460938 C 100.007812 167.472656 101.320312 165.621094 101.097656 163.917969 C 100.820312 161.75 98.347656 160.820312 97.726562 158.78125 C 97.125 156.816406 98.390625 154.476562 98.398438 152.332031 C 98.421875 151.4375 98.183594 150.5625 97.714844 149.804688 C 97.25 149.046875 96.570312 148.441406 95.765625 148.066406 C 94.160156 147.359375 92.046875 147.648438 90.398438 148.804688 C 88.957031 149.816406 87.949219 151.363281 86.652344 152.578125 C 85.359375 153.792969 83.421875 154.6875 82.128906 153.886719 C 80.5625 152.921875 81.097656 150.273438 82.328125 148.523438 C 83.5625 146.773438 85.328125 145.339844 86.179688 143.414062 C 87.1875 141.140625 86.566406 138.476562 84.75 137.292969 C 82.9375 136.105469 80.109375 136.519531 78.253906 138.242188 C 76.738281 139.648438 75.554688 141.941406 73.652344 142.082031 C 71.644531 142.234375 70.863281 139.644531 71.515625 137.625 C 72.167969 135.605469 73.660156 133.835938 74.347656 131.824219 C 75.046875 129.78125 74.824219 127.574219 73.761719 125.988281 C 73.203125 125.191406 72.457031 124.546875 71.585938 124.117188 C 70.714844 123.6875 69.753906 123.484375 68.785156 123.527344 "/>
<use xlink:href="#surface14" mask="url(#mask3)"/>
<path style=" stroke:none;fill-rule:nonzero;fill:rgb(18.823529%,43.921569%,70.196078%);fill-opacity:1;" d="M 99.574219 52.226562 C 99.574219 55.292969 97.097656 57.78125 94.042969 57.78125 C 90.984375 57.78125 88.507812 55.292969 88.507812 52.226562 C 88.507812 49.15625 90.984375 46.671875 94.042969 46.671875 C 97.097656 46.671875 99.574219 49.15625 99.574219 52.226562 Z M 99.574219 52.226562 "/>
<path style=" stroke:none;fill-rule:nonzero;fill:rgb(18.823529%,43.921569%,70.196078%);fill-opacity:1;" d="M 37.617188 56.671875 C 37.617188 58.511719 36.128906 60.003906 34.296875 60.003906 C 32.464844 60.003906 30.976562 58.511719 30.976562 56.671875 C 30.976562 54.828125 32.464844 53.335938 34.296875 53.335938 C 36.128906 53.335938 37.617188 54.828125 37.617188 56.671875 Z M 37.617188 56.671875 "/>
<path style=" stroke:none;fill-rule:nonzero;fill:rgb(18.823529%,43.921569%,70.196078%);fill-opacity:1;" d="M 53.105469 94.453125 C 53.105469 96.292969 51.621094 97.785156 49.789062 97.785156 C 47.953125 97.785156 46.46875 96.292969 46.46875 94.453125 C 46.46875 92.609375 47.953125 91.117188 49.789062 91.117188 C 51.621094 91.117188 53.105469 92.609375 53.105469 94.453125 Z M 53.105469 94.453125 "/>
<path style=" stroke:none;fill-rule:nonzero;fill:rgb(18.823529%,43.921569%,70.196078%);fill-opacity:1;" d="M 42.042969 122.230469 C 42.042969 123.457031 41.050781 124.453125 39.828125 124.453125 C 38.605469 124.453125 37.617188 123.457031 37.617188 122.230469 C 37.617188 121.003906 38.605469 120.007812 39.828125 120.007812 C 41.050781 120.007812 42.042969 121.003906 42.042969 122.230469 Z M 42.042969 122.230469 "/>
<path style=" stroke:none;fill-rule:nonzero;fill:rgb(18.823529%,43.921569%,70.196078%);fill-opacity:1;" d="M 81.871094 80.003906 C 81.871094 81.234375 80.878906 82.226562 79.660156 82.226562 C 78.4375 82.226562 77.445312 81.234375 77.445312 80.003906 C 77.445312 78.777344 78.4375 77.78125 79.660156 77.78125 C 80.878906 77.78125 81.871094 78.777344 81.871094 80.003906 Z M 81.871094 80.003906 "/>
<path style=" stroke:none;fill-rule:nonzero;fill:rgb(18.823529%,43.921569%,70.196078%);fill-opacity:1;" d="M 19.917969 86.671875 C 19.917969 87.902344 18.925781 88.894531 17.703125 88.894531 C 16.480469 88.894531 15.492188 87.902344 15.492188 86.671875 C 15.492188 85.445312 16.480469 84.449219 17.703125 84.449219 C 18.925781 84.449219 19.917969 85.445312 19.917969 86.671875 Z M 19.917969 86.671875 "/>
</g>
</svg>
