<svg width="305" height="292" viewBox="0 0 305 292" fill="none" xmlns="http://www.w3.org/2000/svg">
<path d="M110.281 259.652C171.187 259.652 220.562 210.243 220.562 149.294C220.562 88.3453 171.187 38.9363 110.281 38.9363C49.3745 38.9363 0 88.3453 0 149.294C0 210.243 49.3745 259.652 110.281 259.652Z" fill="#F2F2F2"/>
<path d="M251.275 91.9653L264.523 91.663L264.894 104.976L260.243 100.533L255.294 105.713L250.976 101.589L255.893 96.4422L251.275 91.9653Z" fill="white"/>
<path d="M215.203 60.6171L219.432 56.1904L219.523 60.1833L220.538 60.1435L220.407 54.4393L214.703 54.5695L214.726 55.5677L218.703 55.4936L214.473 59.9204L215.203 60.6171Z" fill="white"/>
<path d="M210.736 92.4314C215.307 87.545 217.803 73.5247 214.762 70.5503C211.722 67.5759 198.036 70.6443 193.251 75.3215L193.105 75.1821L99.09 171.266L116.726 188.52L210.739 92.4385L210.736 92.4314Z" fill="#BABABA"/>
<path d="M242.947 123.951C247.518 119.064 250.013 105.044 246.973 102.07C243.932 99.0953 230.246 102.164 225.464 106.843L225.318 106.704L131.303 202.788L148.939 220.042L242.952 123.96L242.947 123.951Z" fill="#BABABA"/>
<path d="M270.406 63.1147C277.154 55.998 283.486 38.0545 280.448 35.0824C277.41 32.1103 259.877 39.0926 252.929 45.9903L252.786 45.8533L114.931 186.74L132.562 203.994L270.42 63.1049L270.406 63.1147Z" fill="#545454"/>
<path d="M180.898 123.84L194.151 123.538L194.516 136.851L189.868 132.41L184.919 137.591L180.599 133.464L185.518 128.315L180.898 123.84Z" fill="#6C63FF"/>
<g opacity="0.1">
<path opacity="0.1" d="M224.866 109.813C230.824 107.271 238.716 106.223 240.932 108.391C243.817 111.212 241.722 123.927 237.624 129.409L242.729 124.192C247.3 119.305 249.795 105.285 246.755 102.311C244.568 100.17 236.856 101.167 230.924 103.637L224.866 109.813Z" fill="black"/>
<path opacity="0.1" d="M187.067 81.5028L187.213 81.6422C191.995 76.9626 205.684 73.8965 208.722 76.8686C210.707 78.8113 210.33 85.4592 208.559 91.2019L246.739 52.1835L246.882 52.3205C253.844 45.413 271.374 38.4284 274.401 41.4126C277.271 44.2197 271.778 60.3939 265.471 68.1735L270.172 63.3649C276.92 56.2483 283.252 38.3048 280.214 35.3327C277.176 32.3606 259.643 39.3429 252.684 46.2527L252.54 46.1157L214.361 85.1342C216.132 79.3866 216.508 72.7435 214.524 70.8008C211.486 67.8288 197.797 70.8948 193.014 75.5744L192.869 75.435L98.8536 171.519L98.9265 171.589L187.067 81.5028Z" fill="#545454"/>
</g>
<path d="M274.558 41.2528L274.556 41.2505C273.636 40.3506 272.161 40.3667 271.261 41.2865L267.455 45.1773C266.555 46.0971 266.571 47.5723 267.491 48.4721L267.493 48.4745C268.413 49.3744 269.888 49.3582 270.788 48.4384L274.595 44.5476C275.494 43.6278 275.478 42.1527 274.558 41.2528Z" fill="#ECECF3"/>
<path d="M245.117 181.566C242.061 182.581 238.729 183.492 235.121 184.298C216.462 188.465 192.698 189.298 168.207 186.646C143.717 183.993 121.425 178.171 105.439 170.251C97.6512 166.393 91.7801 162.243 87.9887 157.916C83.9745 153.335 82.4539 148.685 83.4688 144.095C85.4461 135.154 96.402 129.703 105.245 126.704L105.137 127.945C92.994 132.062 87.3876 137.752 85.9848 144.095C84.1981 152.174 91.4971 161.006 107.075 168.724C123.027 176.626 143.755 181.649 168.207 184.298C192.659 186.946 216.503 185.723 235.121 181.566C253.303 177.506 262.656 172.093 264.442 164.014C265.926 157.306 262.994 149.801 252.091 143.012L252.515 141.801C260.438 146.734 269.445 154.592 267.361 164.014C266.346 168.603 262.888 172.714 257.083 176.232C253.774 178.237 249.769 180.021 245.117 181.566Z" fill="#3F3D56"/>
<path d="M101.112 180.323L95.3541 186.293C94.7308 183.583 91.5999 182.094 88.786 183.169C85.9722 184.244 83.9846 187.688 84.6164 190.395C82.2518 190.784 80.4477 189.07 78.835 187.602C77.2224 186.133 74.9754 184.756 72.7202 185.825C70.9094 186.683 69.8915 188.878 69.8911 190.773C69.8908 192.668 70.6825 194.336 71.4595 195.941C67.8346 194.498 62.8211 196.24 60.1818 199.86C57.5425 203.48 57.5779 208.565 60.2615 211.3C56.4391 210.146 51.3587 212.785 49.544 216.867C47.7147 220.981 49.1233 225.304 50.9249 228.853C55.4991 237.896 62.6389 245.388 71.4505 250.393C74.8194 252.302 78.5068 253.866 82.5807 254.085C86.6545 254.304 91.1833 253.024 94.4788 249.955C89.7574 252.331 87.8749 258.778 89.4358 263.263C90.9968 267.748 95.0252 270.587 99.1682 272.709C104.678 275.531 111.567 277.421 117.823 274.2C120.92 272.606 123.446 269.951 125.886 267.363L130.615 262.345C132.525 260.319 134.464 258.253 135.776 255.834C137.088 253.416 137.701 250.548 136.776 248.299C139.339 247.863 141.991 247.394 144.319 245.951C146.647 244.508 148.569 241.807 148.246 239.321C147.835 236.157 144.213 234.798 143.299 231.818C142.419 228.951 144.274 225.538 144.289 222.402C144.321 221.101 143.972 219.819 143.286 218.712C142.6 217.606 141.606 216.724 140.426 216.175C138.072 215.142 134.972 215.567 132.557 217.255C130.442 218.733 128.962 220.99 127.063 222.765C125.165 224.54 122.328 225.842 120.427 224.675C118.135 223.267 118.917 219.397 120.723 216.844C122.529 214.29 125.12 212.196 126.37 209.384C127.846 206.066 126.934 202.173 124.275 200.445C121.615 198.716 117.468 199.32 114.75 201.831C112.527 203.885 110.792 207.232 108.002 207.441C105.054 207.662 103.91 203.88 104.867 200.933C105.823 197.986 108.012 195.401 109.021 192.464C110.045 189.482 109.719 186.259 108.16 183.944C107.343 182.78 106.247 181.841 104.971 181.212C103.695 180.584 102.282 180.288 100.862 180.35" fill="#FEDA3E"/>
<path opacity="0.3" d="M41.4181 156.093L152.501 0L30.525 154.225C29.9217 154.591 29.5086 155.021 29.3197 155.479C29.1309 155.938 29.1719 156.411 29.4392 156.86C29.7066 157.309 30.1927 157.721 30.8571 158.062C31.5215 158.402 32.3452 158.662 33.2598 158.819C34.1744 158.976 35.1535 159.025 36.116 158.964C37.0785 158.902 37.9967 158.731 38.7943 158.465C39.5919 158.198 40.2459 157.844 40.7022 157.432C41.1585 157.019 41.4039 156.561 41.418 156.093H41.4181Z" fill="#FEDA3E"/>
<circle cx="137.897" cy="76.2499" r="8.1117" fill="#3070B3"/>
<circle cx="50.2909" cy="82.7393" r="4.86702" fill="#3070B3"/>
<circle cx="73.0057" cy="137.899" r="4.86702" fill="#3070B3"/>
<circle cx="58.4029" cy="178.458" r="3.24468" fill="#3070B3"/>
<circle cx="116.807" cy="116.808" r="3.24468" fill="#3070B3"/>
<circle cx="25.9595" cy="126.543" r="3.24468" fill="#3070B3"/>
</svg>
