<svg width="1322" height="145" viewBox="0 0 1322 145" fill="none" xmlns="http://www.w3.org/2000/svg">
<circle opacity="0.86" cx="862" cy="62" r="36" fill="#22996E" fill-opacity="0.1"/>
<g opacity="0.86">
<circle cx="862.003" cy="62" r="27.4576" fill="#22996E"/>
<path d="M862.003 74.2335H844.407C843.482 74.2335 842.923 73.2111 843.422 72.4328L854.026 55.8946C854.241 55.5592 854.612 55.3564 855.011 55.3564H868.995C869.393 55.3564 869.764 55.5592 869.979 55.8946L880.583 72.4328C881.082 73.2111 880.523 74.2335 879.599 74.2335H862.003Z" fill="white"/>
<path d="M862.607 42.1407L868.273 50.7983C868.528 51.1872 868.249 51.7033 867.784 51.7033H856.24C855.771 51.7033 855.493 51.1783 855.757 50.7901L861.634 42.1324C861.869 41.7872 862.379 41.7915 862.607 42.1407Z" fill="white"/>
</g>
<circle opacity="0.86" cx="438" cy="60" r="36" fill="#178DD0" fill-opacity="0.1"/>
<g opacity="0.86">
<circle cx="437.4" cy="59.4" r="27" fill="#178DD0"/>
<path d="M423.269 58.3994C423.321 58.0777 423.346 57.9168 423.474 57.8143C423.601 57.7118 423.762 57.721 424.084 57.7394C424.81 57.7809 426.123 57.8862 428.104 58.154C430.134 58.4286 431.603 59.1698 432.423 59.6911C432.754 59.9011 432.919 60.0061 433.05 60.2449C433.182 60.4838 433.182 60.7163 433.182 61.1814C433.182 62.2559 433.182 64.3902 433.182 68.2594C433.182 72.5321 433.182 74.6892 433.182 75.6398C433.182 75.9389 433.182 76.0884 433.088 76.1817C432.995 76.275 432.845 76.275 432.545 76.275C431.54 76.275 429.515 76.275 427.697 76.275C426.33 76.275 425.186 76.2693 424.421 76.2641C423.927 76.2607 423.68 76.259 423.502 76.105C423.325 75.951 423.289 75.7131 423.217 75.2373C422.995 73.7618 422.635 70.7859 422.635 66.9938C422.635 62.8886 423.057 59.7289 423.269 58.3994Z" fill="white"/>
<path d="M451.11 58.3994C451.058 58.0777 451.033 57.9168 450.905 57.8143C450.778 57.7118 450.617 57.721 450.295 57.7394C449.568 57.7809 448.256 57.8862 446.275 58.154C444.245 58.4286 442.776 59.1698 441.956 59.6911C441.625 59.9011 441.46 60.0061 441.329 60.2449C441.197 60.4838 441.197 60.7163 441.197 61.1814C441.197 62.2559 441.197 64.3902 441.197 68.2594C441.197 72.5321 441.197 74.6892 441.197 75.6398C441.197 75.9389 441.197 76.0884 441.291 76.1817C441.384 76.275 441.534 76.275 441.834 76.275C442.838 76.275 444.864 76.275 446.682 76.275C448.049 76.275 449.193 76.2693 449.958 76.2641C450.452 76.2607 450.699 76.259 450.876 76.105C451.054 75.951 451.09 75.7131 451.162 75.2373C451.384 73.7618 451.744 70.7859 451.744 66.9938C451.744 62.8886 451.322 59.7289 451.11 58.3994Z" fill="white"/>
<path d="M423.057 43.5951C423.057 43.0548 423.057 42.7846 423.222 42.6025C423.387 42.4203 423.653 42.3944 424.184 42.3424C426.408 42.1248 431.649 41.6811 437.4 41.6811C443.152 41.6811 448.393 42.1248 450.617 42.3424C451.148 42.3944 451.414 42.4203 451.579 42.6025C451.744 42.7846 451.744 43.0548 451.744 43.5951V49.9014C451.744 50.4376 451.744 50.7057 451.58 50.8876C451.416 51.0695 451.152 51.0964 450.626 51.1502C448.476 51.3696 443.44 51.8061 437.4 51.8061C431.36 51.8061 426.325 51.3696 424.175 51.1502C423.649 51.0964 423.385 51.0695 423.221 50.8876C423.057 50.7057 423.057 50.4376 423.057 49.9014V43.5951Z" fill="white"/>
</g>
<circle opacity="0.86" cx="575.061" cy="44.0612" r="43.0612" fill="#22996E" fill-opacity="0.1"/>
<path d="M608.955 52.4706C604.28 71.2224 585.288 82.6345 566.533 77.9583C547.787 73.2834 536.375 54.2896 541.052 35.5393C545.725 16.7854 564.718 5.37249 583.466 10.0474C602.219 14.7223 613.63 33.7182 608.955 52.4709L608.955 52.4706H608.955Z" fill="#F7931A"/>
<path d="M590.436 39.0159C591.132 34.3578 587.586 31.8538 582.736 30.1835L584.31 23.8736L580.469 22.9165L578.937 29.0602C577.927 28.8084 576.89 28.5711 575.86 28.3358L577.402 22.1515L573.564 21.1945L571.99 27.5023C571.154 27.312 570.333 27.124 569.537 26.9259L569.541 26.906L564.245 25.5833L563.223 29.6858C563.223 29.6858 566.073 30.339 566.012 30.3792C567.568 30.7674 567.849 31.797 567.802 32.6131L566.01 39.8016C566.118 39.8288 566.256 39.8681 566.41 39.9297C566.282 39.8979 566.145 39.8632 566.004 39.8293L563.492 49.8993C563.302 50.3718 562.819 51.081 561.732 50.8117C561.77 50.8675 558.94 50.115 558.94 50.115L557.033 54.5117L562.032 55.7578C562.962 55.991 563.873 56.235 564.77 56.4644L563.181 62.8467L567.017 63.8038L568.591 57.4893C569.639 57.7738 570.657 58.0362 571.652 58.2836L570.084 64.5684L573.925 65.5255L575.514 59.1552C582.064 60.3947 586.989 59.895 589.062 53.9708C590.732 49.201 588.979 46.4499 585.533 44.6558C588.042 44.077 589.933 42.4263 590.437 39.0164L590.436 39.0156L590.436 39.0159ZM581.66 51.3219C580.473 56.0916 572.442 53.5133 569.838 52.8667L571.947 44.4113C574.551 45.0613 582.9 46.3476 581.66 51.3219H581.66ZM582.848 38.9468C581.765 43.2854 575.081 41.0812 572.912 40.5407L574.825 32.8722C576.993 33.4127 583.976 34.4214 582.848 38.9468H582.848Z" fill="white"/>
<circle opacity="0.86" cx="720.061" cy="43.0612" r="43.0612" fill="#22996E" fill-opacity="0.1"/>
<path d="M720 78.0002C739.33 78.0002 755 62.3301 755 43.0001C755 23.6701 739.33 8 720 8C700.67 8 685 23.6701 685 43.0001C685 62.3301 700.67 78.0002 720 78.0002Z" fill="#627EEA"/>
<path d="M721.09 16.7453V36.1494L737.49 43.4785L721.09 16.7453Z" fill="white" fill-opacity="0.602"/>
<path d="M721.091 16.7453L704.691 43.4785L721.091 36.1494V16.7453Z" fill="white"/>
<path d="M721.09 56.051V69.2358L737.499 46.5307L721.09 56.051Z" fill="white" fill-opacity="0.602"/>
<path d="M721.091 69.2358V56.051L704.691 46.5307L721.091 69.2358Z" fill="white"/>
<path d="M721.09 52.9988L737.49 43.4785L721.09 36.1494V52.9988Z" fill="white" fill-opacity="0.2"/>
<path d="M704.691 43.4785L721.091 52.9988V36.1494L704.691 43.4785Z" fill="white" fill-opacity="0.602"/>
<path d="M105 129C114.389 129 122 121.389 122 112C122 102.611 114.389 95 105 95C95.6112 95 88 102.611 88 112C88 121.389 95.6112 129 105 129Z" fill="#00DCFA"/>
<circle opacity="0.86" cx="105" cy="112" r="21" fill="#22996E" fill-opacity="0.1"/>
<path d="M108.589 100.312C104.477 100.312 100.985 103.475 100.546 107.545C96.4734 107.985 93.3125 111.477 93.3125 115.588C93.3136 117.736 94.1672 119.795 95.6856 121.314C97.2041 122.832 99.2633 123.686 101.411 123.688C105.523 123.688 109.029 120.526 109.454 116.455C113.525 116.015 116.688 112.523 116.688 108.412C116.686 106.264 115.833 104.205 114.314 102.686C112.796 101.168 110.737 100.314 108.589 100.312V100.312ZM114.79 109.318C114.588 110.646 113.966 111.875 113.016 112.825C112.066 113.775 110.837 114.397 109.509 114.599V109.318H114.79V109.318ZM95.2101 114.682C95.4096 113.351 96.0299 112.119 96.9801 111.166C97.9303 110.214 99.1606 109.59 100.491 109.387V114.668H95.2101V114.682V114.682ZM107.613 116.509C107.393 117.997 106.646 119.356 105.507 120.338C104.369 121.32 102.915 121.86 101.411 121.859C99.9074 121.86 98.4536 121.321 97.3151 120.339C96.1767 119.357 95.4295 117.998 95.2101 116.51H107.613V116.509ZM107.682 109.318V114.668H102.318V109.318H107.682ZM114.79 107.491H102.387C102.607 106.003 103.354 104.644 104.493 103.662C105.631 102.68 107.085 102.14 108.589 102.141C110.093 102.14 111.546 102.679 112.685 103.661C113.823 104.643 114.571 106.002 114.79 107.49V107.491Z" fill="white"/>
<path d="M990 100C1002.19 100 1012 90.1917 1012 78C1012 65.8083 1002.19 56 990 56C977.808 56 968 65.8083 968 78C968 90.1917 977.808 100 990 100Z" fill="#2775CA"/>
<path d="M996.051 81.4833C996.051 78.275 994.126 77.175 990.276 76.7168C987.526 76.35 986.976 75.6168 986.976 74.3333C986.976 73.0498 987.893 72.225 989.726 72.225C991.376 72.225 992.293 72.775 992.751 74.15C992.843 74.425 993.118 74.6083 993.393 74.6083H994.859C995.226 74.6083 995.501 74.3333 995.501 73.9668V73.875C995.134 71.8583 993.484 70.3 991.376 70.1168V67.9168C991.376 67.55 991.101 67.275 990.643 67.1833H989.268C988.901 67.1833 988.626 67.4583 988.534 67.9168V70.025C985.784 70.3918 984.043 72.225 984.043 74.5168C984.043 77.5418 985.876 78.7333 989.726 79.1918C992.293 79.65 993.118 80.2 993.118 81.6668C993.118 83.1335 991.834 84.1418 990.093 84.1418C987.709 84.1418 986.884 83.1333 986.609 81.7583C986.518 81.3918 986.243 81.2083 985.968 81.2083H984.409C984.043 81.2083 983.768 81.4833 983.768 81.85V81.9418C984.134 84.2333 985.601 85.8833 988.626 86.3418V88.5418C988.626 88.9083 988.901 89.1833 989.359 89.2751H990.734C991.101 89.2751 991.376 89.0001 991.468 88.5418V86.3418C994.218 85.8833 996.051 83.9583 996.051 81.4833V81.4833Z" fill="white"/>
<path d="M985.325 91.1083C978.175 88.5418 974.508 80.5668 977.167 73.5083C978.542 69.6583 981.567 66.725 985.325 65.35C985.692 65.1668 985.875 64.8918 985.875 64.4333V63.15C985.875 62.7833 985.692 62.5083 985.325 62.4167C985.233 62.4167 985.05 62.4167 984.958 62.5083C976.25 65.2583 971.483 74.5168 974.233 83.2251C975.883 88.3583 979.825 92.3001 984.958 93.9501C985.325 94.1333 985.692 93.9501 985.783 93.5833C985.875 93.4918 985.875 93.4001 985.875 93.2168V91.9333C985.875 91.6583 985.6 91.2918 985.325 91.1083ZM995.042 62.5083C994.675 62.325 994.308 62.5083 994.217 62.875C994.125 62.9667 994.125 63.0583 994.125 63.2418V64.525C994.125 64.8918 994.4 65.2583 994.675 65.4418C1001.82 68.0083 1005.49 75.9833 1002.83 83.0418C1001.46 86.8918 998.433 89.8251 994.675 91.2001C994.308 91.3833 994.125 91.6583 994.125 92.1168V93.4001C994.125 93.7668 994.308 94.0418 994.675 94.1333C994.767 94.1333 994.95 94.1333 995.042 94.0418C1003.75 91.2918 1008.52 82.0333 1005.77 73.325C1004.12 68.1 1000.08 64.1583 995.042 62.5083V62.5083Z" fill="white"/>
<circle opacity="0.86" cx="315" cy="77" r="29" fill="#22996E" fill-opacity="0.1"/>
<path fill-rule="evenodd" clip-rule="evenodd" d="M299.155 59.2136L290.037 78.364C290.003 78.4352 289.992 78.5157 290.006 78.5936C290.02 78.6716 290.059 78.7429 290.117 78.7971L314.74 102.392C314.81 102.459 314.903 102.496 315 102.496C315.097 102.496 315.19 102.459 315.26 102.392L339.883 78.7986C339.941 78.7443 339.98 78.673 339.994 78.5951C340.008 78.5172 339.997 78.4367 339.963 78.3655L330.845 59.2151C330.816 59.1508 330.769 59.0963 330.709 59.0582C330.65 59.02 330.58 58.9998 330.51 59H299.493C299.422 58.9991 299.352 59.0188 299.292 59.0567C299.232 59.0946 299.184 59.1491 299.155 59.2136V59.2136V59.2136Z" fill="#50AF95"/>
<path fill-rule="evenodd" clip-rule="evenodd" d="M318.166 80.3305C317.989 80.3438 317.075 80.3983 315.038 80.3983C313.418 80.3983 312.267 80.3497 311.864 80.3305C305.601 80.0551 300.927 78.965 300.927 77.6598C300.927 76.3546 305.601 75.266 311.864 74.9861V79.2449C312.273 79.2743 313.446 79.3436 315.066 79.3436C317.011 79.3436 317.984 79.2625 318.16 79.2463V74.9891C324.409 75.2675 329.072 76.3576 329.072 77.6598C329.072 78.962 324.41 80.0521 318.16 80.3291L318.166 80.3305ZM318.166 74.5486V70.7377H326.886V64.9263H303.143V70.7377H311.862V74.5471C304.775 74.8727 299.445 76.2766 299.445 77.9588C299.445 79.6411 304.775 81.0435 311.862 81.3706V93.5826H318.164V81.3661C325.235 81.0406 330.556 79.6382 330.556 77.9574C330.556 76.2766 325.239 74.8742 318.164 74.5471L318.166 74.5486Z" fill="white"/>
<circle opacity="0.86" cx="204" cy="94" r="24" fill="#22996E" fill-opacity="0.1"/>
<path fill-rule="evenodd" clip-rule="evenodd" d="M204 76C213.94 76 222 84.0604 222 94C222 103.94 213.94 112 204 112C194.06 112 186 103.94 186 94C186 84.0604 194.06 76 204 76Z" fill="#1E1E1E"/>
<path d="M204.27 101.524C198.513 101.524 193.848 99.8607 193.848 97.6323C193.848 96.4695 195.118 95.4219 197.152 94.6839C198.74 95.7027 201.404 96.2247 204.424 96.2247C207.373 96.2247 209.979 95.5875 211.581 94.6119C213.5 95.3427 214.692 96.3615 214.692 97.4847C214.692 99.7167 210.026 101.524 204.27 101.524Z" fill="white"/>
<path d="M204.332 95.7243C199.968 95.7243 196.43 94.3563 196.43 92.6679C196.43 91.7319 197.52 90.8931 199.23 90.3351C200.451 90.9723 202.28 91.3791 204.332 91.3791C206.384 91.3791 208.212 90.9723 209.433 90.3351C211.146 90.8967 212.234 91.7319 212.234 92.6679C212.237 94.3563 208.698 95.7243 204.332 95.7243V95.7243Z" fill="white"/>
<path d="M204.301 90.8717C200.927 90.8717 198.191 89.7413 198.191 88.3517C198.191 86.9621 200.927 85.8317 204.301 85.8317C207.674 85.8317 210.41 86.9621 210.41 88.3517C210.41 89.7413 207.674 90.8717 204.301 90.8717V90.8717Z" fill="white"/>
<circle opacity="0.86" cx="17" cy="127" r="17" fill="#22996E" fill-opacity="0.1"/>
<path fill-rule="evenodd" clip-rule="evenodd" d="M30 127C30 134.18 24.1798 140 17 140C9.8203 140 4 134.18 4 127C4 119.82 9.8203 114 17 114C24.1798 114 30 119.82 30 127ZM13.3162 132.173H10.7932C10.2631 132.173 10.0012 132.173 9.84155 132.071C9.66909 131.959 9.56371 131.774 9.55093 131.57C9.54134 131.381 9.67229 131.151 9.93416 130.691L16.1636 119.711C16.4287 119.245 16.5628 119.012 16.7321 118.926C16.9141 118.833 17.1313 118.833 17.3133 118.926C17.4826 119.012 17.6167 119.245 17.8817 119.711L19.1624 121.947L19.1689 121.958C19.4552 122.458 19.6004 122.712 19.6638 122.978C19.734 123.269 19.734 123.575 19.6638 123.866C19.5999 124.134 19.4562 124.39 19.1656 124.898L15.8934 130.682L15.8849 130.697C15.5968 131.201 15.4507 131.457 15.2483 131.65C15.0279 131.86 14.7629 132.014 14.4723 132.1C14.2072 132.173 13.9102 132.173 13.3162 132.173ZM19.6874 132.173H23.3025C23.8358 132.173 24.1041 132.173 24.2639 132.068C24.4363 131.956 24.5448 131.768 24.5545 131.564C24.5637 131.381 24.4356 131.16 24.1846 130.727C24.176 130.712 24.1673 130.697 24.1585 130.682L22.3477 127.584L22.3271 127.549C22.0726 127.119 21.9442 126.902 21.7792 126.818C21.5973 126.725 21.3831 126.725 21.2012 126.818C21.0351 126.904 20.901 127.131 20.6359 127.587L18.8315 130.685L18.8253 130.696C18.5612 131.152 18.4292 131.38 18.4387 131.567C18.4515 131.771 18.5569 131.959 18.7293 132.071C18.8858 132.173 19.1541 132.173 19.6874 132.173Z" fill="#E84142"/>
<circle opacity="0.86" cx="990" cy="78" r="29" fill="#22996E" fill-opacity="0.1"/>
<circle opacity="0.86" cx="1105" cy="93" r="25" fill="#22996E" fill-opacity="0.1"/>
<path d="M1105 112C1115.49 112 1124 103.493 1124 93C1124 82.5066 1115.49 74 1105 74C1094.51 74 1086 82.5066 1086 93C1086 103.493 1094.51 112 1105 112Z" fill="url(#paint0_linear_215_274)"/>
<path d="M1113.32 100.571L1106.89 85.0376C1106.53 84.2345 1105.99 83.8428 1105.28 83.8428H1104.71C1104 83.8428 1103.46 84.2345 1103.1 85.0376L1100.3 91.8051H1098.19C1097.56 91.81 1097.04 92.3193 1097.04 92.9559V92.9706C1097.04 93.6023 1097.56 94.1165 1098.19 94.1214H1099.33L1096.66 100.571C1096.61 100.713 1096.58 100.86 1096.58 101.011C1096.58 101.374 1096.69 101.658 1096.89 101.878C1097.09 102.098 1097.38 102.206 1097.74 102.206C1097.98 102.201 1098.21 102.128 1098.4 101.986C1098.61 101.844 1098.75 101.638 1098.86 101.403L1101.8 94.1165H1103.84C1104.47 94.1116 1104.99 93.6023 1104.99 92.9657V92.9363C1104.99 92.3046 1104.47 91.7905 1103.84 91.7856H1102.75L1105 86.1982L1111.11 101.398C1111.22 101.633 1111.36 101.839 1111.57 101.981C1111.76 102.123 1111.99 102.196 1112.23 102.201C1112.59 102.201 1112.88 102.094 1113.08 101.873C1113.29 101.653 1113.39 101.369 1113.39 101.006C1113.4 100.86 1113.37 100.708 1113.32 100.571Z" fill="white"/>
<circle opacity="0.86" cx="1211" cy="112" r="23" fill="#22996E" fill-opacity="0.1"/>
<circle opacity="0.86" cx="1304" cy="127" r="18" fill="#22996E" fill-opacity="0.1"/>
<path d="M1211 129C1220.39 129 1228 121.389 1228 112C1228 102.611 1220.39 95 1211 95C1201.61 95 1194 102.611 1194 112C1194 121.389 1201.61 129 1211 129Z" fill="#6747ED"/>
<path fill-rule="evenodd" clip-rule="evenodd" d="M1210.75 114.196C1208.24 114.196 1206.22 112.177 1206.22 109.663C1206.22 107.148 1208.24 105.129 1210.75 105.129C1213.27 105.129 1215.29 107.148 1215.29 109.663C1215.29 112.177 1213.27 114.196 1210.75 114.196ZM1210.75 102.863C1214.51 102.863 1217.55 105.908 1217.55 109.663C1217.55 113.417 1214.51 116.463 1210.75 116.463C1207 116.463 1203.95 113.417 1203.95 109.663C1203.95 105.908 1207 102.863 1210.75 102.863ZM1217.23 116.817C1217.69 117.277 1217.69 117.985 1217.23 118.41L1212.7 122.944C1212.24 123.404 1211.53 123.404 1211.11 122.944C1210.65 122.483 1210.65 121.775 1211.11 121.35L1215.64 116.817C1216.07 116.356 1216.81 116.356 1217.23 116.817ZM1219.86 103.996C1219.86 104.633 1219.36 105.129 1218.72 105.129C1218.08 105.129 1217.59 104.633 1217.59 103.996C1217.59 103.358 1218.08 102.863 1218.72 102.863C1219.32 102.863 1219.86 103.358 1219.86 103.996Z" fill="white"/>
<path d="M1304 140C1311.18 140 1317 134.18 1317 127C1317 119.82 1311.18 114 1304 114C1296.82 114 1291 119.82 1291 127C1291 134.18 1296.82 140 1304 140Z" fill="#FEC60D"/>
<path d="M1312.67 122.244L1309.87 120.637C1309.78 120.58 1309.69 120.53 1309.59 120.476C1309.5 120.423 1309.41 120.366 1309.32 120.312C1308.76 119.991 1308.19 119.681 1307.64 119.35L1304.99 117.817C1304.83 117.724 1304.04 117.255 1304 117.255C1303.99 117.255 1303.89 117.32 1303.86 117.334L1300.24 119.422C1300.19 119.452 1300.15 119.475 1300.1 119.505C1300.05 119.53 1300 119.557 1299.96 119.584L1299.68 119.747C1299.63 119.775 1299.59 119.803 1299.54 119.831L1299.27 119.988C1299.17 120.045 1299.08 120.094 1298.99 120.148L1298.42 120.469C1298.38 120.494 1298.34 120.521 1298.29 120.548L1297.59 120.954C1297.49 121.011 1297.4 121.058 1297.3 121.113L1296.75 121.44C1296.47 121.599 1296.19 121.769 1295.91 121.923C1295.78 121.989 1295.13 122.387 1295.07 122.405V132.735C1295.12 132.74 1295.83 133.164 1295.91 133.208L1297.02 133.855C1297.12 133.912 1297.21 133.963 1297.3 134.017L1297.86 134.335C1297.9 134.36 1297.95 134.387 1297.99 134.414C1298.05 134.443 1298.08 134.469 1298.14 134.495C1298.28 134.568 1298.42 134.655 1298.55 134.737L1299.25 135.143C1299.3 135.17 1299.34 135.193 1299.39 135.222C1299.67 135.387 1299.95 135.536 1300.22 135.701L1301.2 136.27C1301.85 136.653 1302.51 137.009 1303.16 137.396L1303.92 137.84C1304.05 137.922 1304.09 137.829 1304.28 137.724L1305.96 136.756C1306.05 136.702 1306.14 136.65 1306.24 136.596L1306.51 136.439C1306.56 136.414 1306.6 136.387 1306.65 136.358L1308.19 135.467C1308.65 135.192 1309.12 134.942 1309.58 134.666L1312.65 132.89C1312.69 132.863 1312.74 132.836 1312.79 132.81C1312.83 132.784 1312.88 132.748 1312.94 132.735V122.405C1312.85 122.346 1312.76 122.301 1312.67 122.244V122.244ZM1307.15 132.355H1304.54V133.039C1304.54 133.047 1304.53 133.05 1304.53 133.05H1303.27V132.355H1300.85V130.421C1300.85 130.401 1300.88 130.384 1300.89 130.373L1301.13 130.109C1301.14 130.102 1301.15 130.095 1301.16 130.088C1301.16 130.08 1301.17 130.072 1301.17 130.066L1301.32 129.914L1301.32 129.912L1301.36 129.869L1301.38 129.846L1301.42 129.798L1301.43 129.793L1301.58 129.628C1301.61 129.595 1301.65 129.563 1301.68 129.527L1301.68 129.525L1301.68 129.519L1301.79 129.41C1301.8 129.394 1301.81 129.385 1301.83 129.367L1301.95 129.235L1301.97 129.215C1301.98 129.208 1301.98 129.2 1301.99 129.192L1302.2 128.971L1302.2 128.97L1302.2 128.964L1302.23 128.931C1302.27 128.879 1302.35 128.814 1302.39 128.762L1302.4 128.756C1302.41 128.74 1302.42 128.728 1302.44 128.713L1302.52 128.626C1302.57 128.569 1302.62 128.507 1302.68 128.45L1302.86 128.254L1302.88 128.233L1302.96 128.146C1302.98 128.13 1302.99 128.119 1303.01 128.103C1303.02 128.086 1303.03 128.075 1303.05 128.059L1303.13 127.972C1303.14 127.964 1303.14 127.958 1303.15 127.949L1303.21 127.883C1303.22 127.867 1303.24 127.856 1303.25 127.839C1303.29 127.8 1303.39 127.695 1303.41 127.665C1303.42 127.649 1303.44 127.639 1303.45 127.623C1303.42 127.584 1303.38 127.546 1303.35 127.511L1303.27 127.423L1303.25 127.403C1303.24 127.393 1303.24 127.388 1303.23 127.379C1303.16 127.315 1303.11 127.248 1303.04 127.184L1302.94 127.074C1302.94 127.066 1302.93 127.059 1302.92 127.052L1301.99 126.049C1301.98 126.041 1301.98 126.033 1301.97 126.025L1301.83 125.876L1301.83 125.875L1301.52 125.545C1301.52 125.537 1301.51 125.532 1301.5 125.525L1301.42 125.435C1301.36 125.378 1301.31 125.317 1301.26 125.26L1301.24 125.241L1301.24 125.239L1301.18 125.174C1301.15 125.143 1301.12 125.116 1301.09 125.086C1301.08 125.076 1301.08 125.071 1301.07 125.061C1301.02 125.005 1300.97 124.944 1300.91 124.889C1300.9 124.881 1300.9 124.876 1300.89 124.869C1300.88 124.861 1300.85 124.832 1300.85 124.823V122.882H1303.27V122.076C1303.69 122.076 1304.11 122.084 1304.53 122.084V122.856C1304.53 122.865 1304.54 122.868 1304.54 122.868H1307.15V124.827H1303.56C1303.58 124.86 1303.61 124.887 1303.63 124.916L1303.83 125.135C1303.85 125.152 1303.86 125.163 1303.87 125.179C1303.91 125.22 1303.95 125.255 1303.98 125.295L1304.27 125.615C1304.33 125.67 1304.38 125.733 1304.43 125.789L1305.17 126.604L1305.18 126.611L1305.44 126.903L1305.46 126.923C1305.5 126.959 1305.53 126.999 1305.56 127.035L1306.04 127.557C1306.06 127.579 1306.08 127.598 1306.1 127.622C1306.09 127.634 1306.08 127.637 1306.08 127.647C1306.07 127.654 1306.06 127.662 1306.06 127.669L1305.96 127.777C1305.95 127.784 1305.95 127.792 1305.94 127.799L1305.7 128.061C1305.68 128.077 1305.67 128.09 1305.66 128.105C1305.63 128.138 1305.58 128.198 1305.54 128.235L1305.37 128.421C1305.34 128.461 1305.25 128.549 1305.22 128.584L1304.98 128.844C1304.93 128.906 1304.87 128.96 1304.82 129.022L1304.73 129.127C1304.68 129.177 1304.63 129.23 1304.59 129.28C1304.58 129.288 1304.57 129.294 1304.57 129.303C1304.51 129.365 1304.45 129.425 1304.4 129.49L1304.39 129.499L1304.18 129.726L1304.17 129.732L1304.17 129.74L1304.16 129.742L1304.07 129.848C1304.06 129.854 1304.06 129.861 1304.05 129.869C1304.04 129.876 1304.04 129.883 1304.03 129.89C1303.99 129.931 1303.95 129.979 1303.91 130.02C1303.9 130.027 1303.9 130.034 1303.89 130.042L1303.81 130.13C1303.81 130.138 1303.8 130.143 1303.79 130.15L1303.56 130.412H1307.05C1307.08 130.412 1307.15 130.404 1307.15 130.422V132.356V132.355Z" fill="white"/>
<defs>
<linearGradient id="paint0_linear_215_274" x1="1119.17" y1="81.0803" x2="1090.89" y2="104.868" gradientUnits="userSpaceOnUse">
<stop stop-color="#B6509E"/>
<stop offset="1" stop-color="#2EBAC6"/>
</linearGradient>
</defs>
</svg>
