<svg width="234" height="193" viewBox="0 0 234 193" fill="none" xmlns="http://www.w3.org/2000/svg">
<path d="M107.463 193C156.677 193 196.572 153.077 196.572 103.828C196.572 54.5802 156.677 14.6566 107.463 14.6566C58.2491 14.6566 18.3535 54.5802 18.3535 103.828C18.3535 153.077 58.2491 193 107.463 193Z" fill="#F2F2F2"/>
<path d="M133.427 182.746C105.301 182.747 80.83 161.524 77.2148 132.577L77.9058 132.488C81.4762 161.078 105.649 182.04 133.427 182.042C135.787 182.042 138.145 181.891 140.486 181.591C171.123 177.676 192.899 149.279 189.029 118.288L189.72 118.2C193.638 149.575 171.591 178.326 140.574 182.29C138.203 182.593 135.816 182.746 133.427 182.746Z" fill="#3F3D56"/>
<path d="M97.4831 162.818H72.1316C71.59 162.819 71.0551 162.698 70.5672 162.463C70.0792 162.227 69.6508 161.885 69.3141 161.46C68.9814 161.046 68.7467 160.563 68.6276 160.045C68.5085 159.528 68.5081 158.99 68.6263 158.472C71.0408 147.811 70.8891 136.728 68.1838 126.137C68.0127 125.44 68.054 124.707 68.3026 124.034C68.5511 123.36 68.9954 122.776 69.5784 122.358C82.6141 112.976 92.8802 113.248 100.092 123.168C100.417 123.62 100.633 124.142 100.723 124.692C102.649 136.283 102.756 148.105 101.039 159.73C100.919 160.588 100.493 161.373 99.8396 161.941C99.1859 162.509 98.3487 162.821 97.4831 162.818Z" fill="#CCCCCC"/>
<path d="M89.6234 137.413H80.9024C80.4208 137.412 79.9593 137.219 79.6191 136.878C79.2789 136.537 79.0879 136.075 79.0879 135.593C79.0879 135.111 79.2789 134.649 79.6191 134.308C79.9593 133.967 80.4208 133.774 80.9024 133.773H89.6234C90.105 133.774 90.5665 133.967 90.9067 134.308C91.2469 134.649 91.4379 135.111 91.4379 135.593C91.4379 136.075 91.2469 136.537 90.9067 136.878C90.5665 137.219 90.105 137.412 89.6234 137.413Z" fill="white"/>
<path d="M89.6234 143.794H80.9024C80.4208 143.793 79.9593 143.601 79.6191 143.26C79.2789 142.919 79.0879 142.457 79.0879 141.975C79.0879 141.493 79.2789 141.03 79.6191 140.689C79.9593 140.348 80.4208 140.156 80.9024 140.155H89.6234C90.105 140.156 90.5665 140.348 90.9067 140.689C91.2469 141.03 91.4379 141.493 91.4379 141.975C91.4379 142.457 91.2469 142.919 90.9067 143.26C90.5665 143.601 90.105 143.793 89.6234 143.794Z" fill="white"/>
<path d="M89.6234 150.176H80.9024C80.4208 150.175 79.9593 149.983 79.6191 149.642C79.2789 149.301 79.0879 148.839 79.0879 148.357C79.0879 147.875 79.2789 147.412 79.6191 147.071C79.9593 146.73 80.4208 146.538 80.9024 146.537H89.6234C90.105 146.538 90.5665 146.73 90.9067 147.071C91.2469 147.412 91.4379 147.875 91.4379 148.357C91.4379 148.839 91.2469 149.301 90.9067 149.642C90.5665 149.983 90.105 150.175 89.6234 150.176Z" fill="white"/>
<path d="M197.385 175.439H151.461C150.23 175.437 149.05 174.928 148.18 174.022C147.309 173.116 146.82 171.888 146.818 170.607V141.164C146.82 139.883 147.309 138.655 148.18 137.749C149.05 136.843 150.23 136.334 151.461 136.332H197.385C198.616 136.334 199.796 136.843 200.666 137.749C201.537 138.655 202.026 139.883 202.028 141.164V170.607C202.026 171.888 201.537 173.116 200.666 174.022C199.796 174.928 198.616 175.437 197.385 175.439Z" fill="#E6E6E6"/>
<path d="M178.001 170.838H153.478C152.322 170.837 151.213 170.384 150.396 169.579C149.578 168.774 149.119 167.683 149.117 166.545V145.226C149.119 144.088 149.578 142.997 150.396 142.192C151.213 141.387 152.322 140.934 153.478 140.933H193.065C194.221 140.934 195.329 141.387 196.147 142.192C196.964 142.997 197.424 144.088 197.425 145.226V151.714C197.419 156.784 195.371 161.645 191.73 165.231C188.088 168.816 183.151 170.832 178.001 170.838Z" fill="white"/>
<path d="M189.534 152.435H159.3C159.039 152.435 158.788 152.313 158.603 152.098C158.418 151.882 158.314 151.589 158.314 151.284C158.314 150.979 158.418 150.687 158.603 150.471C158.788 150.255 159.039 150.134 159.3 150.134H189.534C189.795 150.134 190.046 150.255 190.231 150.471C190.416 150.687 190.52 150.979 190.52 151.284C190.52 151.589 190.416 151.882 190.231 152.098C190.046 152.313 189.795 152.435 189.534 152.435Z" fill="#FEDA3E"/>
<path d="M164.202 157.036H159.328C159.059 157.035 158.801 156.914 158.611 156.698C158.421 156.482 158.314 156.19 158.314 155.886C158.314 155.581 158.421 155.289 158.611 155.073C158.801 154.857 159.059 154.736 159.328 154.735H164.202C164.471 154.736 164.729 154.857 164.919 155.073C165.109 155.289 165.216 155.581 165.216 155.886C165.216 156.19 165.109 156.482 164.919 156.698C164.729 156.914 164.471 157.035 164.202 157.036Z" fill="#FEDA3E"/>
<path d="M173.364 161.636H159.368C159.088 161.636 158.82 161.515 158.623 161.299C158.425 161.084 158.314 160.791 158.314 160.486C158.314 160.181 158.425 159.889 158.623 159.673C158.82 159.457 159.088 159.336 159.368 159.336H173.364C173.643 159.336 173.911 159.457 174.109 159.673C174.306 159.889 174.417 160.181 174.417 160.486C174.417 160.791 174.306 161.084 174.109 161.299C173.911 161.515 173.643 161.636 173.364 161.636Z" fill="#FEDA3E"/>
<path d="M190.695 127.08C194.656 127.08 197.867 123.869 197.867 119.908C197.867 115.947 194.656 112.736 190.695 112.736C186.734 112.736 183.523 115.947 183.523 119.908C183.523 123.869 186.734 127.08 190.695 127.08Z" fill="#0732FC"/>
<path d="M107.877 35.7675C108.628 31.9545 110.121 28.3269 112.273 25.0916C114.425 21.8564 117.192 19.0769 120.417 16.9119C126.931 12.5395 134.913 10.9354 142.608 12.4525C146.419 13.2037 150.044 14.6986 153.277 16.8518C156.51 19.005 159.287 21.7743 161.451 25.0016C163.614 28.229 165.121 31.8512 165.886 35.6614C166.65 39.4716 166.658 43.3952 165.907 47.2081L164.872 47.0042C166.334 39.5782 164.788 31.8753 160.575 25.5898C156.361 19.3043 149.825 14.9513 142.404 13.4882C134.984 12.0252 127.286 13.572 121.005 17.7884C114.724 22.0049 110.374 28.5455 108.912 35.9714L107.877 35.7675Z" fill="#3F3D56"/>
<path d="M117.995 54.1484L94.2748 55.1315C93.7681 55.1536 93.2629 55.0606 92.7972 54.8594C92.3316 54.6582 91.9174 54.3542 91.5859 53.97C91.2587 53.5958 91.0203 53.1523 90.8889 52.6727C90.7574 52.1932 90.7361 51.6901 90.8267 51.2011C92.6471 41.2684 92.1166 31.0471 89.2778 21.3566C89.0586 20.6154 89.1031 19.8212 89.4037 19.1092C89.7042 18.3973 90.2422 17.8117 90.926 17.4522C100.642 12.4009 109.745 12.1448 117.982 16.69C118.414 16.9247 118.79 17.2509 119.082 17.6456C119.375 18.0404 119.579 18.4944 119.678 18.9758C121.822 29.5503 122.336 40.3908 121.202 51.1209C121.124 51.9283 120.756 52.6799 120.166 53.2365C119.576 53.7931 118.805 54.1171 117.995 54.1484Z" fill="#FEDA3E"/>
<path d="M116.99 38.6119L98.8528 39.3637C98.6293 39.3731 98.4061 39.3384 98.196 39.2615C97.9858 39.1846 97.7929 39.067 97.6283 38.9154C97.4636 38.7639 97.3303 38.5813 97.2362 38.3782C97.1421 38.1751 97.0888 37.9554 97.0796 37.7317C97.0703 37.508 97.1052 37.2847 97.1822 37.0745C97.2593 36.8643 97.3769 36.6713 97.5285 36.5067C97.6801 36.342 97.8627 36.2088 98.0657 36.1148C98.2688 36.0208 98.4883 35.9677 98.7119 35.9586L116.849 35.2069C117.072 35.1976 117.295 35.2325 117.505 35.3095C117.715 35.3865 117.908 35.5042 118.072 35.6557C118.237 35.8072 118.37 35.9897 118.464 36.1928C118.558 36.3958 118.611 36.6153 118.621 36.8389C118.63 37.0625 118.595 37.2857 118.518 37.4958C118.441 37.7059 118.323 37.8988 118.172 38.0634C118.021 38.2281 117.838 38.3612 117.635 38.4554C117.432 38.5495 117.213 38.6027 116.99 38.6119Z" fill="white"/>
<path d="M116.746 32.6412L98.6092 33.393C98.158 33.4117 97.7178 33.2502 97.3855 32.9442C97.0532 32.6381 96.8561 32.2125 96.8374 31.7609C96.8187 31.3094 96.98 30.869 97.2859 30.5364C97.5917 30.2039 98.017 30.0066 98.4683 29.9879L116.605 29.2362C117.056 29.2175 117.496 29.3789 117.829 29.685C118.161 29.9911 118.358 30.4167 118.377 30.8682C118.396 31.3197 118.234 31.7602 117.928 32.0927C117.623 32.4252 117.197 32.6225 116.746 32.6412Z" fill="white"/>
<path d="M226.91 51.7492H163.696C162.002 51.7473 160.378 51.073 159.18 49.8743C157.982 48.6755 157.309 47.0502 157.307 45.3549V6.39434C157.309 4.69905 157.982 3.07374 159.18 1.87498C160.378 0.676227 162.002 0.00192187 163.696 0H226.91C228.604 0.00191528 230.228 0.676217 231.426 1.87497C232.624 3.07373 233.297 4.69905 233.299 6.39434V45.3549C233.297 47.0502 232.624 48.6755 231.426 49.8743C230.228 51.073 228.604 51.7473 226.91 51.7492Z" fill="#E6E6E6"/>
<path d="M201.795 46.7307H168.141C166.554 46.729 165.033 46.0975 163.911 44.9748C162.789 43.8521 162.158 42.33 162.156 40.7422V11.0067C162.158 9.41894 162.789 7.89677 163.911 6.7741C165.033 5.65142 166.554 5.01994 168.141 5.01819H222.467C224.054 5.01995 225.575 5.65145 226.697 6.77412C227.819 7.8968 228.45 9.41898 228.452 11.0067V20.0558C228.443 27.128 225.632 33.9083 220.635 38.9091C215.638 43.9099 208.862 46.7228 201.795 46.7307Z" fill="white"/>
<path d="M217.046 21.3007H173.559C173.183 21.3007 172.822 21.1512 172.556 20.885C172.29 20.6188 172.141 20.2578 172.141 19.8814C172.141 19.505 172.29 19.144 172.556 18.8779C172.822 18.6117 173.183 18.4622 173.559 18.4622H217.046C217.423 18.4622 217.783 18.6117 218.049 18.8779C218.315 19.144 218.465 19.505 218.465 19.8814C218.465 20.2578 218.315 20.6188 218.049 20.885C217.783 21.1512 217.423 21.3007 217.046 21.3007Z" fill="#FEDA3E"/>
<path d="M180.359 26.9089H173.556C173.18 26.9081 172.82 26.7582 172.555 26.4921C172.29 26.226 172.141 25.8654 172.141 25.4895C172.141 25.1136 172.29 24.753 172.555 24.4869C172.82 24.2209 173.18 24.071 173.556 24.0702H180.359C180.734 24.071 181.094 24.2209 181.36 24.4869C181.625 24.753 181.774 25.1136 181.774 25.4895C181.774 25.8654 181.625 26.226 181.36 26.4921C181.094 26.7582 180.734 26.9081 180.359 26.9089Z" fill="#FEDA3E"/>
<path d="M192.41 32.517H173.559C173.183 32.517 172.822 32.3675 172.556 32.1013C172.29 31.8351 172.141 31.4741 172.141 31.0977C172.141 30.7213 172.29 30.3602 172.556 30.0941C172.822 29.8279 173.183 29.6783 173.559 29.6783H192.41C192.785 29.6791 193.145 29.829 193.411 30.0951C193.676 30.3612 193.825 30.7218 193.825 31.0977C193.825 31.4736 193.676 31.8342 193.411 32.1003C193.145 32.3663 192.785 32.5162 192.41 32.517Z" fill="#FEDA3E"/>
<path d="M176.105 54.8468C179.411 49.5242 177.78 42.5273 172.461 39.2187C167.142 35.9101 160.15 37.5428 156.844 42.8653C153.538 48.1879 155.169 55.1848 160.488 58.4934C165.807 61.802 172.799 60.1694 176.105 54.8468Z" fill="#0732FC"/>
<path d="M31.5019 137.381C26.8495 125.074 27.2734 111.421 32.6803 99.426C38.0872 87.4312 48.0343 78.077 60.3332 73.4214C72.6322 68.7657 86.2755 69.1899 98.2619 74.6006C110.248 80.0113 119.596 89.9653 124.248 102.273L123.262 102.646C121.007 96.682 117.601 91.2204 113.237 86.5733C108.873 81.9263 103.637 78.185 97.8283 75.5629C92.0195 72.9407 85.7515 71.4892 79.3821 71.2912C73.0128 71.0931 66.6668 72.1524 60.7065 74.4086C54.7463 76.6648 49.2884 80.0737 44.6447 84.4406C40.0009 88.8076 36.2622 94.047 33.6419 99.8599C31.0216 105.673 29.5711 111.945 29.3732 118.319C29.1753 124.693 30.2339 131.043 32.4885 137.008L31.5019 137.381Z" fill="#3F3D56"/>
<path d="M73.7188 88.2372H50.8146C50.3252 88.2383 49.842 88.1284 49.4011 87.9159C48.9603 87.7034 48.5732 87.3937 48.269 87.0102C47.9685 86.6364 47.7564 86.1994 47.6488 85.7318C47.5412 85.2643 47.5408 84.7785 47.6477 84.3108C49.8159 74.7344 49.6932 64.7809 47.2897 55.261C47.1192 54.5873 47.1715 53.8764 47.4386 53.2349C47.7058 52.5935 48.1734 52.0558 48.7715 51.7026C57.0683 46.8697 65.9284 47.0172 75.105 52.1421C75.5394 52.3792 75.914 52.7124 76.2002 53.1164C76.4864 53.5204 76.6766 53.9844 76.7563 54.4731C78.3896 64.7287 78.4486 75.1737 76.9311 85.4471C76.8232 86.2222 76.4384 86.932 75.8478 87.445C75.2572 87.958 74.5008 88.2394 73.7188 88.2372Z" fill="#FEDA3E"/>
<path d="M63.0184 66.0059H55.1394C54.7043 66.005 54.2873 65.8314 53.98 65.5232C53.6726 65.215 53.5 64.7974 53.5 64.362C53.5 63.9266 53.6726 63.5089 53.98 63.2007C54.2873 62.8925 54.7043 62.7189 55.1394 62.718H63.0184C63.4535 62.7189 63.8705 62.8925 64.1778 63.2007C64.4852 63.5089 64.6578 63.9266 64.6578 64.362C64.6578 64.7974 64.4852 65.215 64.1778 65.5232C63.8705 65.8314 63.4535 66.005 63.0184 66.0059Z" fill="white"/>
<path d="M72.6498 72.5019H55.1369C54.7012 72.5019 54.2834 72.3287 53.9753 72.0204C53.6672 71.7121 53.4941 71.2939 53.4941 70.8579C53.4941 70.4219 53.6672 70.0038 53.9753 69.6955C54.2834 69.3872 54.7012 69.214 55.1369 69.214H72.6498C73.0849 69.2149 73.5018 69.3885 73.8092 69.6967C74.1165 70.0049 74.2891 70.4225 74.2891 70.8579C74.2891 71.2933 74.1165 71.711 73.8092 72.0192C73.5018 72.3274 73.0849 72.501 72.6498 72.5019Z" fill="white"/>
<path d="M59.024 136.716H5.41865C3.98203 136.715 2.60471 136.143 1.58887 135.126C0.573029 134.11 0.00162024 132.732 0 131.294V98.255C0.00162024 96.8174 0.573029 95.4391 1.58887 94.4225C2.60471 93.406 3.98203 92.8341 5.41865 92.8325H59.024C60.4606 92.8341 61.838 93.406 62.8538 94.4225C63.8697 95.4391 64.4411 96.8174 64.4427 98.255V131.294C64.4411 132.732 63.8697 134.11 62.8538 135.126C61.838 136.143 60.4606 136.715 59.024 136.716Z" fill="#E6E6E6"/>
<path d="M37.7253 132.461H9.18634C7.84086 132.459 6.55091 131.924 5.59949 130.972C4.64807 130.02 4.11288 128.729 4.11133 127.383V102.167C4.11288 100.82 4.64807 99.5293 5.59949 98.5773C6.55091 97.6252 7.84086 97.0897 9.18634 97.0883H55.2556C56.6011 97.0898 57.891 97.6253 58.8424 98.5773C59.7938 99.5293 60.3289 100.82 60.3304 102.167V109.84C60.3236 115.838 57.9398 121.587 53.702 125.828C49.4642 130.069 43.7184 132.454 37.7253 132.461Z" fill="white"/>
<path d="M50.6626 110.896H13.7847C13.4658 110.896 13.1599 110.769 12.9343 110.543C12.7087 110.318 12.582 110.011 12.582 109.692C12.582 109.373 12.7087 109.067 12.9343 108.841C13.1599 108.615 13.4658 108.489 13.7847 108.489H50.6626C50.9816 108.489 51.2875 108.615 51.513 108.841C51.7386 109.067 51.8653 109.373 51.8653 109.692C51.8653 110.011 51.7386 110.318 51.513 110.543C51.2875 110.769 50.9816 110.896 50.6626 110.896Z" fill="#FEDA3E"/>
<path d="M19.5509 115.651H13.7823C13.4637 115.651 13.1584 115.524 12.9334 115.298C12.7084 115.072 12.582 114.767 12.582 114.448C12.582 114.129 12.7084 113.823 12.9334 113.598C13.1584 113.372 13.4637 113.245 13.7823 113.244H19.5509C19.8695 113.245 20.1748 113.372 20.3998 113.598C20.6248 113.823 20.7512 114.129 20.7512 114.448C20.7512 114.767 20.6248 115.072 20.3998 115.298C20.1748 115.524 19.8695 115.651 19.5509 115.651Z" fill="#FEDA3E"/>
<path d="M29.7679 120.407H13.7823C13.4637 120.407 13.1584 120.279 12.9334 120.054C12.7084 119.828 12.582 119.522 12.582 119.204C12.582 118.885 12.7084 118.579 12.9334 118.353C13.1584 118.128 13.4637 118.001 13.7823 118H29.7679C30.0869 118 30.3929 118.127 30.6184 118.353C30.844 118.578 30.9707 118.884 30.9707 119.204C30.9707 119.523 30.844 119.829 30.6184 120.055C30.3929 120.28 30.0869 120.407 29.7679 120.407Z" fill="#FEDA3E"/>
<path d="M40.8611 141.38C44.1673 136.058 42.5358 129.061 37.217 125.752C31.8981 122.444 24.9061 124.076 21.5998 129.399C18.2935 134.721 19.9251 141.718 25.2439 145.027C30.5627 148.336 37.5548 146.703 40.8611 141.38Z" fill="#0732FC"/>
<path d="M139.827 131.509H116.597C116.1 131.51 115.61 131.398 115.163 131.183C114.716 130.967 114.323 130.653 114.015 130.264C113.71 129.885 113.495 129.442 113.386 128.968C113.277 128.493 113.276 128.001 113.385 127.526C115.58 117.831 115.46 107.754 113.034 98.113C112.862 97.4201 112.921 96.69 113.201 96.0334C113.481 95.3768 113.967 94.8294 114.586 94.4743C125.871 88.0101 134.806 88.1885 141.904 95.02C142.401 95.5074 142.729 96.1419 142.838 96.8299C144.562 107.37 144.646 118.113 143.085 128.679C142.976 129.465 142.585 130.185 141.986 130.705C141.387 131.225 140.62 131.511 139.827 131.509Z" fill="#FEDA3E"/>
<path d="M130.431 109.691H122.44C121.999 109.69 121.576 109.514 121.264 109.201C120.952 108.889 120.777 108.465 120.777 108.024C120.777 107.582 120.952 107.158 121.264 106.846C121.576 106.533 121.999 106.357 122.44 106.356H130.431C130.873 106.357 131.296 106.533 131.607 106.846C131.919 107.158 132.094 107.582 132.094 108.024C132.094 108.465 131.919 108.889 131.607 109.201C131.296 109.514 130.873 109.69 130.431 109.691Z" fill="white"/>
<path d="M140.206 116.279H122.444C122.002 116.279 121.578 116.104 121.265 115.791C120.953 115.478 120.777 115.054 120.777 114.612C120.777 114.17 120.953 113.746 121.265 113.433C121.578 113.12 122.002 112.945 122.444 112.945H140.206C140.647 112.946 141.07 113.122 141.382 113.434C141.693 113.747 141.869 114.17 141.869 114.612C141.869 115.054 141.693 115.477 141.382 115.79C141.07 116.102 140.647 116.278 140.206 116.279Z" fill="white"/>
</svg>
